<?xml version="1.0" encoding="UTF-8" standalone="no"?>
<svg
   xmlns:dc="http://purl.org/dc/elements/1.1/"
   xmlns:cc="http://creativecommons.org/ns#"
   xmlns:rdf="http://www.w3.org/1999/02/22-rdf-syntax-ns#"
   xmlns:svg="http://www.w3.org/2000/svg"
   xmlns="http://www.w3.org/2000/svg"
   id="svg8"
   version="1.1"
   viewBox="0 0 210 297"
   height="297mm"
   width="210mm">
  <defs
     id="defs2" />
  <metadata
     id="metadata5">
    <rdf:RDF>
      <cc:Work
         rdf:about="">
        <dc:format>image/svg+xml</dc:format>
        <dc:type
           rdf:resource="http://purl.org/dc/dcmitype/StillImage" />
        <dc:title></dc:title>
      </cc:Work>
    </rdf:RDF>
  </metadata>
  <g
     id="layer1">
    <path
       id="path21"
       d="m 9.9723165,30.183997 c 0,-0.179864 -0.064815,-0.286578 -0.1740678,-0.286578 -0.095735,0 -0.7276372,-0.179215 -1.4042289,-0.398254 C 7.0185844,29.053882 6.4769374,28.685614 5.9996761,27.871231 5.7374981,27.42386 5.6970454,27.230001 5.7069365,26.46834 c 0.012175,-0.938773 0.2870986,-2.353041 0.5165531,-2.657414 0.351809,-0.466681 0.88577,-0.599256 2.4549512,-0.60952 1.3978862,-0.0091 1.5334252,0.0088 1.7590582,0.233471 0.268933,0.267732 0.309316,0.645424 0.177954,1.664328 -0.112117,0.869609 0.111791,1.417868 0.675187,1.65327 0.582196,0.243258 1.159192,0.05769 2.002317,-0.643968 0.628119,-0.522727 0.706975,-0.640892 0.934324,-1.400065 0.136566,-0.456037 0.389004,-1.190247 0.56097,-1.631578 0.171971,-0.441328 0.425016,-1.331565 0.562327,-1.978301 0.137314,-0.646736 0.403075,-1.536401 0.590582,-1.977036 0.187503,-0.440634 0.443602,-1.300193 0.569102,-1.910129 0.267421,-1.299694 0.882096,-2.664233 1.339978,-2.974662 0.267893,-0.181623 0.584742,-0.221912 2.003815,-0.2548 1.676619,-0.03886 1.687169,-0.03752 1.977391,0.252707 0.378896,0.378896 0.37585,0.831692 -0.0107,1.594553 -0.355033,0.700624 -0.429062,0.93588 -0.738187,2.345872 -0.127701,0.582463 -0.380183,1.417932 -0.56107,1.856595 -0.180891,0.438663 -0.437289,1.329052 -0.569773,1.978639 -0.132489,0.649587 -0.389256,1.498137 -0.570601,1.885663 -0.181347,0.387526 -0.411317,0.980773 -0.511038,1.31832 -0.09973,0.33755 -0.272593,0.749638 -0.384147,0.915751 -0.741874,1.104674 -1.244074,1.61949 -2.210251,2.265754 -0.9818,0.656715 -1.136276,0.71912 -2.754688,1.112868 -1.611596,0.392084 -1.714558,0.43349 -1.714558,0.689524 0,0.264072 -0.02803,0.272394 -0.917047,0.272394 -0.9017654,0 -0.9170506,-0.0048 -0.9170506,-0.286579 z m 37.7136565,0.01434 c 0,-0.20411 -0.0789,-0.289252 -0.315234,-0.340185 -0.173383,-0.03735 -0.913528,-0.19687 -1.644774,-0.354452 -1.736859,-0.374295 -1.781653,-0.393978 -2.700033,-1.186568 -0.668399,-0.576844 -0.844503,-0.811913 -1.186122,-1.583266 -0.386833,-0.873444 -0.401065,-0.955038 -0.397977,-2.281416 0.003,-1.291134 0.03289,-1.470396 0.486269,-2.92026 0.269578,-0.862028 0.626153,-1.748578 0.80684,-2.006046 0.17808,-0.253747 0.463888,-0.705564 0.635126,-1.004035 0.171238,-0.298472 0.817919,-1.046775 1.437065,-1.662902 0.962334,-0.957634 1.320404,-1.225193 2.466961,-1.843374 1.424484,-0.768025 1.828555,-0.886679 4.194708,-1.231726 1.476981,-0.215386 2.405681,-0.17966 4.413301,0.16977 1.652707,0.287658 1.827633,0.363334 2.620774,1.133785 0.844589,0.820423 1.098934,1.349206 1.102223,2.291525 0.0021,0.615252 -0.03895,0.763138 -0.278855,1.00302 -0.315606,0.315612 -0.25651,0.307813 -2.297832,0.303203 -1.92638,-0.0043 -1.999565,-0.03548 -3.06815,-1.30498 -0.658699,-0.782548 -1.078935,-0.952859 -2.112891,-0.856309 -1.512515,0.141244 -3.275455,1.426104 -3.81991,2.784019 -0.148562,0.37053 -0.437575,0.9832 -0.642244,1.36148 -0.433234,0.800715 -0.960188,2.770381 -0.960188,3.589001 0,1.015819 0.644716,2.034927 1.546538,2.444614 0.512155,0.232669 1.808757,0.287519 2.449904,0.103642 0.436484,-0.125183 1.416837,-0.830751 2.226359,-1.602325 l 0.548553,-0.522839 1.837958,-0.03665 c 1.531601,-0.03055 1.884406,-0.0062 2.11662,0.145933 0.312419,0.204702 0.372757,0.741674 0.13131,1.168562 -0.287986,0.509174 -1.652352,1.844257 -2.203266,2.155981 -0.314861,0.178158 -0.763446,0.444729 -0.996852,0.592376 -0.504907,0.319397 -1.184614,0.499401 -3.444429,0.912168 -1.613763,0.294763 -1.690808,0.321178 -1.690808,0.57967 0,0.251866 -0.04416,0.270838 -0.630472,0.270838 -0.587233,0 -0.630472,-0.01867 -0.630472,-0.272251 z m 67.288497,-0.0052 c 0,-0.22111 -0.0757,-0.292826 -0.37255,-0.353083 -1.12564,-0.228466 -2.61853,-0.798002 -2.9556,-1.127559 -0.8296,-0.811077 -1.1201,-2.038731 -0.84956,-3.590136 0.28154,-1.61443 0.43452,-1.723878 2.6621,-1.904578 1.45571,-0.118087 1.53574,-0.113278 1.8341,0.110167 0.3061,0.229237 0.31202,0.257334 0.31404,1.48968 0.002,1.447866 0.14035,1.787912 0.79928,1.969856 0.62549,0.172703 1.12334,-0.03145 1.9402,-0.795559 0.68232,-0.638279 0.74453,-0.739097 0.93369,-1.512862 0.11147,-0.455954 0.34276,-1.169355 0.514,-1.585329 0.17122,-0.415973 0.44675,-1.333882 0.61229,-2.0398 0.16552,-0.705915 0.43252,-1.596069 0.59333,-1.978124 0.1608,-0.38205 0.41617,-1.254333 0.56747,-1.938402 0.41433,-1.873286 0.87718,-2.617222 1.7795,-2.860194 0.28705,-0.07729 1.07603,-0.115959 1.91456,-0.09382 1.33807,0.03531 1.43984,0.05439 1.64518,0.308263 0.30354,0.375295 0.2748,0.714115 -0.12826,1.512597 -0.19093,0.378226 -0.44936,1.189203 -0.57427,1.802172 -0.12493,0.612968 -0.37744,1.501368 -0.56116,1.974224 -0.40038,1.03042 -0.52312,1.442823 -0.6994,2.349939 -0.0735,0.378281 -0.27901,1.048876 -0.45665,1.490204 -0.17764,0.441332 -0.43593,1.171227 -0.57398,1.62199 -0.35537,1.160374 -1.3711,2.476792 -2.51896,3.264643 -1.0804,0.741554 -1.21728,0.797322 -3.06639,1.249264 -1.41641,0.346185 -1.51886,0.389528 -1.51886,0.642573 0,0.262767 -0.029,0.27135 -0.91705,0.27135 -0.89373,0 -0.91705,-0.0071 -0.91705,-0.277472 z m 18.11173,0.01049 c 0,-0.241525 -0.11201,-0.29725 -1.17497,-0.584578 -0.64624,-0.174678 -1.343,-0.368168 -1.54836,-0.429976 -0.498,-0.149883 -1.62065,-1.004555 -2.11635,-1.611181 -0.76777,-0.939567 -0.82614,-1.134781 -0.87154,-2.914748 -0.0227,-0.89288 0.0132,-1.976143 0.0801,-2.407254 0.16418,-1.05934 1.25996,-3.253582 2.16602,-4.337404 0.86334,-1.032704 2.31739,-2.289874 3.12122,-2.698621 0.34676,-0.176329 0.93998,-0.477842 1.31827,-0.670037 0.93366,-0.474367 3.08021,-0.815388 5.13222,-0.815358 1.62038,2.6e-5 4.09687,0.332035 4.64805,0.623142 0.47896,0.252958 1.82608,1.681263 2.01484,2.136247 0.32366,0.780199 0.44997,2.308369 0.3059,3.701212 -0.0727,0.70234 -0.18529,1.477419 -0.25031,1.722396 -0.19528,0.735749 -1.38065,2.822583 -2.10887,3.71266 -0.76434,0.934225 -2.22653,2.148162 -3.09341,2.568195 -0.31513,0.152703 -0.8051,0.413183 -1.08881,0.578854 -0.44668,0.260822 -1.47875,0.548952 -3.69686,1.032058 -0.46286,0.100809 -0.54449,0.15928 -0.54449,0.389978 0,0.267338 -0.0171,0.271389 -1.14632,0.271389 -1.12387,0 -1.14631,-0.0052 -1.14631,-0.266974 z m 4.25824,-3.826955 c 0.62086,-0.313605 1.07437,-0.664972 1.72192,-1.334125 0.762,-0.787418 0.95077,-1.070388 1.41743,-2.124814 0.62635,-1.415195 0.85014,-2.293994 0.85347,-3.351422 0.004,-1.133729 -0.0916,-1.428145 -0.66954,-2.070926 -0.68581,-0.762792 -1.22649,-1.004407 -2.25117,-1.00601 -1.24398,-0.0021 -1.60308,0.09821 -2.67299,0.745466 -1.48828,0.900374 -1.99684,1.577426 -3.01064,4.00795 -0.39756,0.953123 -0.48791,1.313186 -0.53612,2.136485 -0.0851,1.452546 0,1.746503 0.6966,2.420712 0.85209,0.824127 1.29425,0.99686 2.55962,0.999897 0.98455,0.0021 1.1,-0.02348 1.89142,-0.423213 z m 51.7964,3.82257 c 0,-0.253084 -0.10222,-0.296283 -1.51886,-0.641801 -1.67001,-0.407322 -2.03558,-0.58304 -2.66701,-1.28197 -0.9823,-1.087285 -1.17418,-2.392251 -0.46549,-3.165571 l 0.39239,-0.428183 h 1.71987 c 2.04625,0 2.23346,0.07982 2.57607,1.098371 0.11491,0.341602 0.28573,0.706044 0.37961,0.809869 0.24197,0.26759 1.037,0.441804 2.01278,0.441059 1.22066,-8.83e-4 1.66433,-0.158371 2.30363,-0.817459 0.75458,-0.777947 0.8365,-1.034086 0.53194,-1.663206 -0.30994,-0.640251 -0.93024,-1.005629 -1.99794,-1.176846 -0.44133,-0.07078 -1.31826,-0.303112 -1.94873,-0.516301 -0.63047,-0.213195 -1.50236,-0.478067 -1.93753,-0.588612 -0.85638,-0.21754 -1.29056,-0.557842 -1.95993,-1.536133 -0.29218,-0.427026 -0.34295,-0.60744 -0.33764,-1.199768 0.009,-1.052962 0.65061,-2.423099 1.57742,-3.370924 0.38992,-0.398765 0.8637,-0.804041 1.05284,-0.900613 0.18915,-0.09657 0.60533,-0.352736 0.92485,-0.569254 0.50814,-0.344331 0.84216,-0.445781 2.66518,-0.809474 1.98778,-0.396569 2.08422,-0.428179 2.08422,-0.683108 0,-0.229061 0.0574,-0.267295 0.40121,-0.267295 0.3457,0 0.4012,0.03761 0.4012,0.27177 0,0.24847 0.0614,0.278585 0.71645,0.351272 0.39404,0.04372 1.30966,0.205968 2.0347,0.360531 1.48072,0.315654 2.01143,0.604797 2.57073,1.400581 0.64156,0.912848 0.50544,2.337336 -0.2781,2.910134 -0.23926,0.174903 -0.54618,0.214108 -1.85875,0.237409 -1.80905,0.03211 -1.83447,0.02054 -2.3723,-1.082614 -0.38451,-0.78867 -0.80328,-1.009728 -1.91327,-1.00997 -0.92272,-2.08e-4 -1.42776,0.137856 -1.96596,0.537418 -0.68008,0.504895 -0.89898,1.298555 -0.54627,1.980623 0.24705,0.477755 1.17553,0.882781 2.51117,1.095447 0.62355,0.09928 1.60365,0.353473 2.17799,0.564869 0.57436,0.211401 1.27707,0.466352 1.56155,0.566563 0.69502,0.244809 1.30233,0.765699 1.59313,1.366407 0.28797,0.594885 0.32319,1.761449 0.0744,2.466475 -0.24225,0.686596 -1.21035,2.063695 -1.86707,2.655872 -0.76998,0.694294 -2.14321,1.456254 -2.905,1.611891 -0.34234,0.06994 -1.20275,0.258968 -1.91203,0.420059 -1.1959,0.271623 -1.2896,0.312552 -1.2896,0.563366 0,0.267806 -0.0124,0.270466 -1.26094,0.270466 -1.24971,0 -1.26095,-0.0026 -1.26095,-0.27135 z M 92.277503,29.748116 c -0.03155,-0.03254 -1.965926,-0.115401 -4.298672,-0.184132 -2.332746,-0.06873 -4.546348,-0.156824 -4.91911,-0.19576 -1.282857,-0.134001 -1.498435,-0.774785 -0.863202,-2.565846 0.483646,-1.363652 0.732529,-2.204663 0.9668,-3.266991 0.11123,-0.504374 0.350612,-1.292905 0.531952,-1.752287 0.181347,-0.459385 0.437568,-1.332989 0.569367,-1.941349 0.131806,-0.608354 0.366908,-1.393138 0.522459,-1.743959 0.155543,-0.350821 0.384593,-1.073147 0.508986,-1.605167 0.333449,-1.426061 0.868725,-2.144924 1.797919,-2.414585 0.61868,-0.179544 7.33237,-0.452549 11.204407,-0.455616 3.011201,-0.0026 9.673511,0.249627 10.553621,0.399202 0.40716,0.0692 0.78826,0.4406 0.88832,0.865693 0.0452,0.192148 -0.0888,0.74512 -0.38894,1.604838 -0.25186,0.721421 -0.55543,1.80172 -0.67459,2.40067 -0.11915,0.598948 -0.3794,1.527459 -0.57834,2.063361 -0.19894,0.535902 -0.46476,1.490203 -0.59072,2.120676 -0.12596,0.630472 -0.40451,1.536189 -0.619,2.012705 -0.21449,0.476516 -0.44875,1.147107 -0.52058,1.490203 -0.16289,0.77806 -0.69379,1.800495 -1.17921,2.27098 -0.2661,0.257915 -0.54401,0.389091 -0.99478,0.46955 -0.34403,0.06141 -2.68888,0.164722 -5.210763,0.229584 -2.521888,0.06487 -5.049504,0.149308 -5.61693,0.187663 -0.567426,0.03834 -1.057477,0.04311 -1.088994,0.01057 z m -0.873843,-6.432405 0.67367,-0.32629 0.587266,0.239067 c 0.523076,0.212939 0.913023,0.247023 3.56768,0.31182 1.639228,0.04003 3.960504,0.08028 5.158404,0.08949 2.00308,0.01538 2.22093,-0.003 2.71268,-0.228657 0.62583,-0.287215 0.74371,-0.469185 0.84703,-1.307471 0.0454,-0.36806 0.23508,-0.915499 0.4651,-1.342031 0.44993,-0.834326 0.48304,-1.164538 0.14724,-1.468494 -0.23161,-0.209646 -0.55788,-0.219628 -8.167475,-0.24986 -5.285032,-0.02102 -8.117205,0.0091 -8.499371,0.09048 -0.896573,0.1908 -2.072833,0.945351 -2.364286,1.516645 -0.133541,0.261762 -0.419,0.741307 -0.634358,1.065656 -0.54852,0.826129 -0.612783,1.323355 -0.221608,1.714533 l 0.303262,0.303268 2.375544,-0.04095 c 2.337709,-0.04029 2.386273,-0.04613 3.049222,-0.367224 z m 6.232852,-0.59229 c -0.03824,-0.03825 -1.050212,-0.06475 -2.24876,-0.05884 -1.198556,0.0059 -2.309862,-0.03895 -2.469574,-0.09967 -0.594009,-0.225842 -0.486,-0.97801 0.193796,-1.34961 0.324029,-0.177126 0.713042,-0.201791 3.182455,-0.201791 2.500143,0 2.84785,0.02262 3.123698,0.203247 0.377968,0.247491 0.395874,0.538363 0.0525,0.852358 -0.474976,0.434309 -1.638875,0.849528 -1.834091,0.654314 z m -77.118126,6.756824 c -0.749859,-0.310797 -0.772739,-0.95529 -0.06231,-1.755193 0.280964,-0.316352 0.571974,-0.692059 0.646693,-0.834902 0.07472,-0.142848 0.35868,-0.543432 0.631031,-0.890189 1.145847,-1.458915 1.326599,-1.697026 1.827373,-2.407255 0.54974,-0.77968 0.829184,-1.157718 2.508917,-3.394132 1.597716,-2.127214 1.85401,-2.472152 2.262488,-3.045027 0.942886,-1.322358 1.222628,-1.679015 1.802878,-2.2986 0.401641,-0.428867 0.763397,-0.700694 1.03168,-0.775218 0.227236,-0.06312 1.330429,-0.115053 2.451542,-0.115405 2.29201,-8.82e-4 2.697238,0.09126 3.002451,0.681475 0.258795,0.500444 0.59907,2.445394 0.86591,4.949346 0.125149,1.174367 0.380524,2.890529 0.567503,3.813698 0.349998,1.728063 0.690201,4.177018 0.690201,4.968434 0,0.320594 -0.07566,0.519578 -0.265311,0.697744 -0.250575,0.235407 -0.371808,0.249241 -2.183684,0.249241 -2.522547,0 -2.618586,-0.04989 -2.938105,-1.526117 -0.295009,-1.363018 -0.535585,-1.454291 -3.833059,-1.454291 -1.926545,0 -2.68915,0.04003 -2.963087,0.15552 -0.361674,0.152492 -0.853522,0.642001 -1.948774,1.939499 -0.445625,0.527912 -0.659327,0.682453 -1.141865,0.825752 -0.629823,0.187038 -2.663163,0.335531 -2.952472,0.21562 z m 12.078129,-6.239755 0.302038,-0.237583 v -2.209882 c 0,-1.311453 -0.05126,-2.356928 -0.126086,-2.571569 -0.141201,-0.405048 -0.573421,-0.588422 -0.84861,-0.360037 -0.245402,0.203663 -1.255597,1.596125 -1.484424,2.046139 -0.107468,0.21134 -0.580271,0.907728 -1.050678,1.547519 -1.320781,1.796378 -1.172925,2.01858 1.345003,2.021305 1.406833,0.0018 1.590498,-0.02175 1.862757,-0.235892 z m 114.736595,6.029182 c -0.47901,-0.208269 -0.57781,-0.602922 -0.34165,-1.364665 0.10005,-0.322733 0.25956,-0.927267 0.35447,-1.3434 0.0949,-0.416139 0.32718,-1.145886 0.51618,-1.621657 0.18899,-0.475776 0.42949,-1.295943 0.53443,-1.822591 0.10492,-0.526647 0.36648,-1.416629 0.58122,-1.977733 0.21474,-0.5611 0.49655,-1.532238 0.62623,-2.158078 0.12969,-0.625841 0.37863,-1.456359 0.5532,-1.845592 0.17457,-0.389237 0.40789,-1.114687 0.5185,-1.612116 0.2216,-0.996604 0.49737,-1.366043 1.11135,-1.488835 0.19612,-0.03921 1.48418,-0.07132 2.86233,-0.07132 h 2.50575 l 0.33997,0.315234 c 0.27425,0.254318 0.42011,0.598992 0.75481,1.783606 0.22817,0.807607 0.51481,2.119501 0.63698,2.915324 0.26288,1.712519 0.93354,4.382722 1.22764,4.887798 0.26431,0.453888 0.63764,0.520917 0.87591,0.157258 0.0979,-0.149394 0.25592,-0.718522 0.35116,-1.264722 0.0952,-0.546205 0.33044,-1.420125 0.52265,-1.942046 0.19222,-0.521921 0.44899,-1.426261 0.57061,-2.009639 0.12164,-0.583382 0.3675,-1.408726 0.54637,-1.834097 0.17887,-0.425375 0.39225,-1.082912 0.47418,-1.461198 0.29955,-1.383021 0.3659,-1.42467 2.27724,-1.429245 1.46765,-0.0035 1.53449,0.0068 1.80544,0.277723 0.35185,0.351852 0.35164,0.522329 -0.001,1.268964 -0.15561,0.328951 -0.39042,1.094199 -0.5218,1.700556 -0.13137,0.606362 -0.39408,1.477046 -0.58378,1.934859 -0.18972,0.457817 -0.44232,1.302423 -0.56135,1.876903 -0.11902,0.574483 -0.35371,1.387475 -0.52152,1.806646 -0.16781,0.419175 -0.47591,1.419289 -0.68466,2.222477 -0.58135,2.236619 -1.12032,3.696321 -1.47858,4.004484 -0.30165,0.259471 -0.35578,0.264323 -2.94874,0.264323 -3.47809,0 -3.51427,-0.01672 -3.71687,-1.719468 -0.0839,-0.7051 -0.23091,-1.372051 -0.66242,-3.005025 -0.16183,-0.612483 -0.37442,-1.727963 -0.47241,-2.47884 -0.34289,-2.627524 -0.83269,-3.475736 -1.64345,-2.846109 -0.28303,0.219785 -0.46805,0.730125 -0.71499,1.972058 -0.13575,0.682692 -0.39945,1.622441 -0.586,2.08833 -0.18655,0.465888 -0.46033,1.423695 -0.6084,2.128461 -0.14807,0.704766 -0.3693,1.513517 -0.49161,1.797232 -0.12232,0.283711 -0.31341,0.76523 -0.42464,1.070041 -0.30261,0.829217 -0.64608,0.993433 -2.06729,0.988403 -0.72106,-0.0026 -1.28304,-0.06351 -1.51488,-0.164307 z m 20.5123,0.02821 c -0.68935,-0.184743 -0.7717,-0.784602 -0.24968,-1.818718 0.19219,-0.380732 0.47208,-1.243293 0.62199,-1.916805 0.14991,-0.673507 0.45354,-1.69105 0.67475,-2.261205 0.22121,-0.570155 0.46355,-1.395499 0.53851,-1.834097 0.075,-0.438603 0.32915,-1.313294 0.56487,-1.943766 0.23573,-0.630473 0.51723,-1.61057 0.62554,-2.177996 0.12863,-0.673758 0.36276,-1.369716 0.6749,-2.006041 0.72646,-1.481054 0.17079,-1.378092 7.06135,-1.308404 5.78947,0.05856 5.79701,0.05894 6.0093,0.309758 0.31913,0.377063 0.208,1.247462 -0.21574,1.689755 -0.58591,0.61157 -0.94629,0.670115 -4.72283,0.767267 l -3.46506,0.08914 -0.27609,0.286579 c -0.35168,0.365062 -0.76064,1.477631 -0.76064,2.069344 0,0.391348 0.0527,0.48808 0.37255,0.68306 0.34635,0.21118 0.58407,0.22718 3.38162,0.227579 2.85592,3.98e-4 3.02074,0.01209 3.23833,0.229688 0.16565,0.165658 0.22874,0.380325 0.22737,0.773761 -0.003,0.74447 -0.38138,1.383832 -1.03325,1.743959 -0.51146,0.282559 -0.51756,0.283014 -3.42693,0.25464 l -2.91457,-0.02842 -0.60442,0.295711 c -0.79471,0.388822 -1.08954,0.865312 -1.162,1.87796 -0.0493,0.688563 -0.0264,0.802356 0.2183,1.086855 l 0.27334,0.317769 3.51216,-0.01235 3.51216,-0.01235 0.2404,0.305606 c 0.48382,0.615083 0.18516,1.744692 -0.56203,2.125689 -0.3668,0.187035 -0.90046,0.207376 -6.22157,0.237132 -3.20121,0.01789 -5.96089,-0.0051 -6.13263,-0.05114 z M 60.102957,29.192155 c -0.475961,-0.238059 -0.549276,-0.680643 -0.267074,-1.612212 0.139105,-0.459191 0.371648,-1.118608 0.516761,-1.465366 0.145114,-0.346761 0.377042,-1.172106 0.515405,-1.834097 0.138359,-0.661996 0.394948,-1.54203 0.570194,-1.955633 0.175247,-0.413599 0.43421,-1.264735 0.575476,-1.891413 0.141265,-0.626676 0.424994,-1.577876 0.630511,-2.113778 0.205513,-0.535898 0.462938,-1.438621 0.572052,-2.006046 0.240343,-1.249857 0.504566,-1.757108 1.124717,-2.159227 0.451617,-0.29283 0.535092,-0.305343 2.03734,-0.305343 1.411144,0 1.596377,0.02357 1.868472,0.237583 0.377804,0.29718 0.401512,0.83751 0.06563,1.495888 -0.130024,0.254864 -0.339197,0.936296 -0.464836,1.514292 -0.125634,0.578001 -0.430111,1.554772 -0.676613,2.170609 -0.246503,0.615836 -0.524542,1.522195 -0.61786,2.014126 -0.09332,0.491931 -0.324125,1.31764 -0.512901,1.834903 -0.188781,0.517264 -0.428547,1.364765 -0.532822,1.883336 -0.104275,0.518568 -0.332456,1.303941 -0.507077,1.745273 -0.174618,0.441327 -0.400745,1.089944 -0.502503,1.441371 -0.300555,1.037985 -0.384147,1.076353 -2.408667,1.105585 -1.074911,0.01551 -1.831598,-0.02253 -1.986208,-0.09985 z m 11.569025,-0.09248 c -0.53605,-0.332261 -1.10614,-1.295141 -1.466189,-2.476385 -0.171759,-0.563504 -0.456405,-1.282476 -0.632548,-1.59771 -0.176138,-0.315238 -0.400706,-0.887767 -0.499032,-1.272291 -0.09833,-0.384528 -0.311902,-1.000153 -0.474609,-1.368062 -0.162704,-0.367909 -0.324857,-0.914035 -0.360341,-1.213616 -0.06378,-0.538575 -0.05694,-0.552634 0.60972,-1.251789 0.370825,-0.388904 1.417868,-1.359397 2.326761,-2.156654 0.908892,-0.797256 2.146909,-1.893418 2.751148,-2.43591 0.604238,-0.542491 1.276096,-1.07764 1.493027,-1.189214 0.29527,-0.151877 0.852452,-0.228441 2.216831,-0.304624 1.941233,-0.108396 2.386207,-0.03665 2.469942,0.398111 0.09031,0.468986 -0.124364,0.753524 -1.168406,1.548636 -0.593163,0.451734 -1.59415,1.272399 -2.224405,1.823699 -0.63027,0.551304 -1.563044,1.352205 -2.072847,1.779785 -0.739423,0.620161 -0.951608,0.869103 -1.048972,1.230695 -0.162361,0.60296 0.08147,1.542597 0.605261,2.332488 0.21465,0.323695 0.480862,0.872252 0.59158,1.21901 0.110713,0.346762 0.370081,0.914183 0.576365,1.260944 0.20629,0.346758 0.461681,0.896104 0.567543,1.220761 0.105855,0.324661 0.351245,0.830002 0.545299,1.12298 0.393844,0.59459 0.447018,1.021351 0.162742,1.306036 -0.161529,0.161759 -0.521157,0.195176 -2.392929,0.222375 -2.041071,0.02963 -2.230224,0.01503 -2.575941,-0.199265 z"
       style="fill:#cbcbcb;stroke-width:0.11463118" />
  </g>
</svg>
