<?xml version="1.0" encoding="UTF-8" standalone="no"?>
<svg
   xmlns:dc="http://purl.org/dc/elements/1.1/"
   xmlns:cc="http://creativecommons.org/ns#"
   xmlns:rdf="http://www.w3.org/1999/02/22-rdf-syntax-ns#"
   xmlns:svg="http://www.w3.org/2000/svg"
   xmlns="http://www.w3.org/2000/svg"
   id="svg8"
   version="1.1"
   viewBox="0 0 210 297"
   height="297mm"
   width="210mm">
  <defs
     id="defs2" />
  <metadata
     id="metadata5">
    <rdf:RDF>
      <cc:Work
         rdf:about="">
        <dc:format>image/svg+xml</dc:format>
        <dc:type
           rdf:resource="http://purl.org/dc/dcmitype/StillImage" />
        <dc:title></dc:title>
      </cc:Work>
    </rdf:RDF>
  </metadata>
  <g
     id="layer1">
    <path
       id="path34"
       d="m 73.786086,37.985374 c -1.202897,-0.02615 -1.365271,-0.04563 -1.564984,-0.187844 -0.487948,-0.347447 -0.456388,0.449467 -0.456172,-11.518193 1.08e-4,-5.99936 0.02326,-11.125122 0.05143,-11.390587 l 0.05124,-0.482662 h 6.707912 6.707915 v 0.307334 c 0,0.280698 0.02671,0.320963 0.308251,0.464592 0.169537,0.08649 0.670348,0.275874 1.112915,0.420846 0.442566,0.144975 0.92461,0.344239 1.071208,0.442812 0.740138,0.497673 1.843873,1.429014 2.072623,1.748911 0.141957,0.198526 0.384299,0.499962 0.538533,0.669857 0.406625,0.447914 0.626192,0.837368 0.914292,1.621741 0.140404,0.382268 0.334193,0.834037 0.43065,1.003933 0.340719,0.60016 0.573424,1.442464 0.693385,2.509837 0.214602,1.909411 0.117994,5.158732 -0.190996,6.423761 -0.07969,0.326269 -0.315714,0.969171 -0.524493,1.428676 -0.20878,0.459501 -0.471895,1.078718 -0.584691,1.376038 -0.429561,1.132243 -2.3277,3.186127 -3.426566,3.707714 -0.320851,0.152295 -0.733189,0.379985 -0.916324,0.50598 -0.688085,0.473418 -1.457367,0.664264 -3.39082,0.841209 -0.907693,0.08307 -7.376494,0.154487 -9.605303,0.106045 z m 8.678594,-4.225241 c 0.916047,-0.12276 1.101179,-0.195105 2.133914,-0.833903 0.899244,-0.556227 1.231677,-0.855538 1.466258,-1.320159 0.09057,-0.179387 0.282143,-0.487475 0.425717,-0.684638 0.696281,-0.956159 0.89628,-1.908395 0.906003,-4.313679 0.0067,-1.653458 -0.08982,-2.756519 -0.303205,-3.465517 -0.05678,-0.188669 -0.374302,-0.793826 -0.705609,-1.344796 -0.872723,-1.451369 -1.588189,-2.073802 -2.764692,-2.405208 -0.254843,-0.07179 -0.638179,-0.194524 -0.851857,-0.272755 -0.603192,-0.220832 -1.866878,-0.375801 -3.472782,-0.425869 -1.776677,-0.05539 -1.874219,-0.02504 -2.238277,0.69633 l -0.230408,0.456548 -0.04604,2.511845 c -0.02533,1.381514 -0.02554,4.318927 -5.84e-4,6.527582 0.04317,3.803589 0.05369,4.032003 0.199226,4.32362 0.08451,0.169338 0.271735,0.386535 0.416056,0.482662 0.255994,0.170509 0.311652,0.174735 2.278157,0.173103 1.239428,-0.0012 2.313176,-0.04153 2.788013,-0.105166 z m 41.50883,4.202136 c -2.37857,-0.04425 -2.40608,-0.04916 -2.71684,-0.484837 -0.17354,-0.243308 -0.18069,-0.317375 -0.22934,-2.374847 -0.11457,-4.846228 -0.0233,-18.811043 0.13239,-20.252447 l 0.048,-0.44405 h 8.60352 8.60352 v 0.260474 c 0,0.143262 0.0722,0.423665 0.16042,0.623116 0.13058,0.29521 0.16274,0.537573 0.17293,1.303349 0.0135,1.018078 -0.0667,1.335856 -0.42137,1.669436 -0.47295,0.444779 -0.25446,0.429012 -6.05511,0.436948 -6.02666,0.0083 -5.58697,-0.03901 -5.9196,0.636216 -0.16894,0.342961 -0.17755,0.442745 -0.17755,2.059392 0,1.890591 0.0469,2.108582 0.52743,2.45074 l 0.2381,0.169537 4.6797,-0.02367 c 3.21808,-0.01626 4.77776,0.0026 4.99365,0.06088 0.64883,0.174709 0.90362,0.52525 1.03787,1.427856 0.16073,1.080682 -0.13188,1.919828 -0.76114,2.182748 -0.2267,0.09472 -1.02288,0.109909 -5.09285,0.09715 -5.49223,-0.01722 -5.05738,-0.07058 -5.42969,0.666302 -0.19226,0.380526 -0.19307,0.391127 -0.19307,2.547684 0,2.372308 0.006,2.407129 0.48028,2.717884 0.19249,0.126164 0.6339,0.139071 5.97888,0.174834 l 5.77106,0.03861 0.23794,0.227996 c 0.33321,0.319287 0.40847,0.688494 0.37782,1.85347 -0.03,1.141174 -0.12936,1.418661 -0.60843,1.699552 -0.25702,0.150699 -0.46821,0.160453 -5.36445,0.247774 -5.29853,0.09449 -5.4662,0.09501 -9.07403,0.0279 z M 29.333378,37.857529 C 28.925206,37.697811 28.771799,37.581927 28.59953,37.303188 l -0.168463,-0.272573 0.01045,-10.782187 c 0.009,-9.249943 0.02644,-10.820447 0.122944,-11.051404 0.06187,-0.148069 0.112486,-0.386602 0.112486,-0.530077 v -0.260859 h 7.606736 7.606735 v 0.335638 0.335635 l 0.89861,0.455929 c 0.796993,0.404369 0.969469,0.530159 1.525214,1.112345 0.645578,0.676299 0.600594,0.599138 1.485699,2.548449 0.213537,0.470278 0.365894,1.619621 0.316257,2.385751 -0.0508,0.784107 -0.273628,1.421627 -0.947049,2.709542 -0.389186,0.744318 -0.700364,1.099993 -1.525138,1.743219 -0.220694,0.172117 -0.432512,0.401795 -0.470704,0.510397 -0.151475,0.430716 -0.03656,0.616201 1.165584,1.881402 0.501447,0.527751 0.576185,0.648191 0.756165,1.218606 0.464641,1.472583 0.703683,2.746219 0.901482,4.803165 0.04084,0.424742 0.144531,1.137149 0.230416,1.583128 0.143916,0.747307 0.146916,0.83757 0.03828,1.15148 -0.234418,0.677344 -0.185275,0.663325 -2.324942,0.663325 -2.738645,0 -2.581618,0.190657 -2.893952,-3.51377 -0.168346,-1.996659 -0.230851,-2.298165 -0.683471,-3.296815 -0.388581,-0.857365 -0.907506,-1.408825 -1.718783,-1.82655 -0.768497,-0.395698 -1.149592,-0.441388 -3.781208,-0.453329 -2.432245,-0.01103 -2.609175,0.01567 -3.063228,0.462374 -0.405463,0.398905 -0.430518,0.672055 -0.401829,4.380673 0.02472,3.195815 0.01988,3.331867 -0.128581,3.617393 -0.190318,0.366007 -0.446881,0.559014 -0.891432,0.670607 -0.448769,0.11265 -2.739375,0.09222 -3.044438,-0.02714 z m 9.052119,-12.718248 c 3.216079,-0.183622 3.48753,-0.305309 4.251882,-1.906075 0.280541,-0.587524 0.287727,-0.624759 0.287727,-1.490673 0,-0.785534 -0.02177,-0.932345 -0.188553,-1.271252 -0.271215,-0.55113 -1.23235,-1.530514 -1.699003,-1.731264 -0.50875,-0.218858 -1.685007,-0.31016 -4.329116,-0.336026 -2.064361,-0.0202 -2.133419,-0.01597 -2.471222,0.151835 -0.191693,0.09522 -0.434085,0.30044 -0.540582,0.457697 l -0.193062,0.285082 v 2.444874 2.444871 l 0.210615,0.303919 c 0.23987,0.346134 0.528647,0.538866 0.958827,0.639931 0.41363,0.09718 2.078814,0.100353 3.712487,0.0071 z M 52.287062,37.85747 c -0.471387,-0.146627 -0.791409,-0.45451 -0.909006,-0.874536 -0.08472,-0.302559 -0.104767,-2.316929 -0.108269,-10.875591 -0.004,-9.844061 0.0042,-10.523048 0.130842,-10.803282 0.07433,-0.164466 0.135148,-0.43379 0.135148,-0.598499 v -0.299474 h 8.610668 8.610669 v 0.266524 c 0,0.146587 0.05213,0.466653 0.11584,0.711257 0.152196,0.584323 0.151507,1.885877 -0.0012,2.400339 -0.135156,0.455118 -0.433048,0.747106 -0.886888,0.869312 -0.198023,0.05332 -2.037352,0.07918 -5.344368,0.07513 -5.372465,-0.0066 -5.385378,-0.0057 -5.794011,0.373237 -0.406179,0.376705 -0.484037,0.751767 -0.484037,2.331742 0,1.672965 0.06841,1.90513 0.658261,2.234124 0.315504,0.175973 0.442362,0.1916 2.040014,0.251289 0.936977,0.03501 3.037501,0.05022 4.667834,0.03381 1.801594,-0.01813 3.072014,-7.6e-5 3.239023,0.04604 0.625784,0.172786 0.8995,0.789565 0.900735,2.029668 5.84e-4,0.650739 -0.02717,0.828971 -0.176781,1.132683 -0.329257,0.668386 0.03026,0.625311 -5.299884,0.634966 -4.362927,0.0079 -4.739434,0.01894 -5.024212,0.147372 -0.419042,0.188975 -0.648454,0.414596 -0.840383,0.82649 -0.147045,0.315571 -0.164476,0.515416 -0.189598,2.173921 -0.02586,1.707844 -0.0174,1.849658 0.130796,2.184637 0.129471,0.292691 0.226129,0.389474 0.528297,0.528983 0.368197,0.169991 0.394606,0.170917 5.968699,0.20936 4.348947,0.02999 5.637478,0.06067 5.771826,0.137433 0.376772,0.215274 0.445015,0.497638 0.442724,1.831821 -0.002,1.127132 -0.01725,1.264288 -0.174513,1.56223 -0.318207,0.602872 0.306342,0.562178 -8.52673,0.555544 -5.812344,-0.0043 -7.977142,-0.02988 -8.191429,-0.09653 z m 48.248438,5.9e-5 c -0.38818,-0.151899 -0.561111,-0.273104 -0.731935,-0.513 l -0.16348,-0.22959 -0.0049,-10.936568 c -0.0036,-7.921599 0.01871,-10.960218 0.08085,-11.022352 0.04718,-0.04719 0.08579,-0.235221 0.08579,-0.41786 v -0.332071 h 6.834485 6.83447 v 0.336972 c 0,0.336484 8.8e-4,0.33726 0.45393,0.540678 0.24965,0.11204 0.60472,0.256913 0.78903,0.321943 0.57614,0.203275 0.93617,0.462841 1.62015,1.168076 0.57043,0.588164 0.73994,0.830848 1.22352,1.751778 0.71705,1.365577 0.8083,1.832492 0.75693,3.873417 -0.0345,1.370756 -0.13388,2.002958 -0.39455,2.509837 -0.90033,1.750703 -1.06376,1.992675 -1.81553,2.68806 -0.8585,0.794115 -1.07459,0.917044 -2.41395,1.373306 -1.692,0.57639 -1.71268,0.57906 -5.00752,0.646901 -1.89804,0.03908 -3.0794,0.09421 -3.2669,0.152465 -0.16155,0.05018 -0.39758,0.184671 -0.52451,0.298853 -0.42031,0.378076 -0.43399,0.508656 -0.3941,3.762963 0.0424,3.459641 0.0349,3.50929 -0.58828,3.904514 l -0.35335,0.224086 -1.39425,-0.0059 c -0.87017,-0.0037 -1.48134,-0.03995 -1.62593,-0.09653 z m 7.99287,-12.175185 c 1.75474,-0.0788 2.1789,-0.161317 3.03106,-0.589678 1.17797,-0.592131 1.49027,-0.935425 1.71382,-1.883887 0.13931,-0.59112 0.15478,-1.525663 0.0347,-2.099557 -0.15993,-0.764565 -0.41035,-1.104272 -1.25611,-1.703927 -0.93381,-0.66209 -1.31324,-0.81325 -2.27666,-0.906998 -1.03021,-0.100248 -3.54883,-0.09457 -4.03218,0.0091 -0.49075,0.105248 -0.93657,0.482417 -1.05937,0.896251 -0.0541,0.18219 -0.0914,1.136621 -0.0992,2.531964 -0.0106,1.913095 0.006,2.290045 0.11531,2.585967 0.23606,0.640384 0.79263,1.038136 1.62334,1.160114 0.54178,0.07955 0.44909,0.07953 2.2052,5.84e-4 z m 33.74819,12.159012 c -0.33988,-0.152982 -0.6132,-0.404746 -0.70897,-0.653063 -0.10492,-0.272035 -0.0933,-21.810533 0.0119,-22.007053 0.0433,-0.08096 0.0788,-0.288483 0.0788,-0.461171 v -0.313981 h 7.52951 7.52951 v 0.335679 0.335678 l 0.88775,0.409644 c 0.75466,0.348235 0.97197,0.491821 1.44963,0.957852 0.56296,0.549247 1.32212,1.671922 1.72367,2.549027 0.36364,0.794298 0.39678,2.965354 0.0606,3.967516 -0.14188,0.422909 -1.1311,2.213383 -1.36343,2.467803 -0.0869,0.09514 -0.37581,0.314918 -0.64207,0.488392 -0.26626,0.173474 -0.53854,0.398484 -0.60507,0.500026 -0.28068,0.42837 -0.04,0.956054 0.80091,1.756269 0.63193,0.601324 0.80287,0.880607 1.16406,1.901799 0.47281,1.336784 0.55824,1.818217 0.73443,4.138716 0.0258,0.339794 0.10032,0.963696 0.16561,1.386447 0.0653,0.422751 0.10514,1.008755 0.0885,1.302229 -0.0284,0.502352 -0.0472,0.549218 -0.32153,0.800623 l -0.29139,0.267036 -1.63624,-0.02475 c -1.59696,-0.02417 -1.64552,-0.02965 -2.02282,-0.228863 -0.43102,-0.227588 -0.68742,-0.600566 -0.76216,-1.108723 -0.025,-0.169896 -0.10016,-1.108189 -0.16705,-2.085095 -0.0669,-0.976906 -0.17389,-2.03683 -0.23774,-2.355384 -0.29018,-1.447543 -1.27323,-2.728283 -2.44528,-3.185777 -0.36047,-0.140708 -0.66003,-0.16376 -2.83567,-0.218227 -1.33793,-0.0335 -2.55855,-0.04209 -2.71248,-0.01909 -0.41836,0.06248 -0.84705,0.338198 -1.00672,0.64747 -0.28195,0.546172 -0.31576,1.070193 -0.2796,4.334808 0.0382,3.448183 0.0378,3.451312 -0.41445,3.787376 -0.45122,0.335264 -0.72676,0.388987 -2.15093,0.419374 -1.10811,0.02364 -1.40002,0.007 -1.62119,-0.09258 z m 9.26654,-12.700963 c 1.47017,-0.07431 2.46374,-0.221123 2.85064,-0.421198 0.32821,-0.169721 1.06214,-1.016665 1.29701,-1.496692 0.15788,-0.322719 0.21373,-0.571378 0.23978,-1.067633 0.06,-1.143783 -0.21061,-1.998667 -0.7733,-2.442629 -0.14015,-0.110574 -0.4112,-0.342219 -0.60233,-0.514765 -0.82959,-0.748909 -1.59727,-0.879308 -4.94245,-0.839522 -2.08864,0.02484 -2.12865,0.02834 -2.42311,0.21138 -0.19595,0.121809 -0.35537,0.308598 -0.46136,0.540582 -0.15089,0.330232 -0.16311,0.504894 -0.17888,2.555392 -0.0186,2.418716 0.0236,2.731132 0.42044,3.110911 0.39497,0.378006 0.65137,0.435386 1.94788,0.435912 0.65835,2.3e-4 1.83991,-0.03202 2.62568,-0.07174 z m 13.33563,12.709821 c -0.16209,-0.059 -0.36547,-0.171305 -0.45195,-0.249575 -0.39941,-0.36146 -0.37949,0.242124 -0.37716,-11.423102 0.001,-7.169915 0.0287,-10.900915 0.0803,-10.997424 0.043,-0.08034 0.0782,-0.287356 0.0782,-0.460044 v -0.313981 h 7.68396 7.68396 v 0.330956 0.330953 l 0.93836,0.460383 c 0.91031,0.446624 0.95906,0.483474 1.63109,1.232867 0.381,0.424868 0.77396,0.946242 0.87322,1.158614 0.0993,0.21237 0.29318,0.837899 0.43089,1.390063 0.41108,1.64817 0.31709,2.987125 -0.33137,4.720293 -0.18344,0.490268 -0.86271,1.260233 -1.70727,1.935198 -0.79494,0.635308 -0.79455,0.898283 0.003,1.754235 0.65392,0.702183 1.28333,1.506834 1.47139,1.881052 0.26615,0.529605 0.39991,1.384576 0.55269,3.532626 0.0958,1.347213 0.23458,2.210514 0.45812,2.850136 0.32017,0.916157 0.14836,1.544498 -0.50085,1.831675 -0.31609,0.139818 -0.48738,0.151473 -1.90928,0.129891 -2.35643,-0.03576 -2.17124,0.238134 -2.91407,-4.309732 -0.43026,-2.634191 -0.47633,-2.839564 -0.73915,-3.294729 -0.18406,-0.31875 -0.96964,-0.954145 -1.55958,-1.261415 -0.45866,-0.238899 -1.24263,-0.306445 -3.7127,-0.319889 -2.30056,-0.01252 -2.31594,-0.01153 -2.6839,0.172867 -0.72546,0.363545 -0.68169,0.09695 -0.72563,4.419111 -0.0425,4.176795 -0.026,4.039146 -0.52779,4.415629 -0.18857,0.141481 -0.34204,0.15597 -1.8276,0.172534 -1.22834,0.01369 -1.69323,-0.0079 -1.91645,-0.08919 z m 9.05983,-12.714018 c 2.80539,-0.123408 3.52593,-0.301876 3.97532,-0.984629 0.26243,-0.398692 0.73568,-1.858061 0.73431,-2.264362 -0.001,-0.466696 -0.19287,-1.234566 -0.41638,-1.671359 -0.278,-0.543297 -0.93924,-1.115142 -1.7868,-1.545219 -0.53771,-0.27285 -1.36973,-0.34032 -3.85881,-0.312913 -2.1629,0.02382 -2.33881,0.03624 -2.66338,0.188048 -0.73315,0.34292 -0.76226,0.464848 -0.78194,3.273996 -0.0179,2.550758 10e-4,2.666201 0.49899,3.046003 0.47544,0.362633 1.18625,0.407349 4.29869,0.270435 z m 19.88562,12.680817 c -0.3614,-0.170354 -0.61202,-0.42349 -0.73155,-0.738918 -0.0584,-0.153988 -0.0832,-1.365341 -0.0783,-3.822672 0.004,-2.083574 -0.0238,-3.69474 -0.0664,-3.82893 -0.13088,-0.412699 -0.64217,-1.690428 -0.80347,-2.007867 -0.0863,-0.169899 -0.30367,-0.500038 -0.48299,-0.733647 -0.17932,-0.233607 -0.45586,-0.685376 -0.61454,-1.003934 -0.15867,-0.318554 -0.44062,-0.775046 -0.62654,-1.014423 -0.18592,-0.239377 -0.49375,-0.743982 -0.68406,-1.121344 -0.19033,-0.377362 -0.50252,-0.887635 -0.69378,-1.133941 -0.19126,-0.246306 -0.45704,-0.679994 -0.59062,-0.963751 -0.13357,-0.283757 -0.41204,-0.744808 -0.6188,-1.024558 -0.20676,-0.279749 -0.50218,-0.76627 -0.65649,-1.081161 -0.15429,-0.314888 -0.46774,-0.823046 -0.69654,-1.129239 -0.22879,-0.306193 -0.53653,-0.804398 -0.68386,-1.107121 -0.14732,-0.302725 -0.38816,-0.683558 -0.53518,-0.846293 -0.50767,-0.561933 -0.53642,-0.642062 -0.51944,-1.447689 l 0.009,-0.405437 h 2.74152 2.74151 v 0.313432 c 0,0.231721 0.0596,0.387746 0.22875,0.598499 0.12581,0.156787 0.34781,0.528329 0.49333,0.825649 0.14551,0.297321 0.44374,0.781959 0.66272,1.076979 0.21897,0.295017 0.53013,0.816292 0.69145,1.158386 0.16131,0.342094 0.43533,0.800276 0.60892,1.018183 0.17359,0.217909 0.46179,0.687054 0.64044,1.042549 0.17866,0.355491 0.45434,0.837485 0.61263,1.071091 0.15828,0.233609 0.38322,0.615875 0.49985,0.849484 0.30754,0.615997 0.55116,0.849566 0.88563,0.849099 0.17256,-2.31e-4 0.35133,-0.06502 0.47949,-0.173757 0.28222,-0.239447 1.05829,-1.428294 1.47826,-2.264494 0.19196,-0.382227 0.49495,-0.879559 0.67328,-1.10518 0.17835,-0.225621 0.44465,-0.674399 0.5918,-0.997285 0.14714,-0.322885 0.43761,-0.820897 0.64547,-1.106691 0.20788,-0.285794 0.50561,-0.784968 0.66163,-1.109272 0.15603,-0.324307 0.45277,-0.774656 0.65943,-1.000778 0.32187,-0.352179 0.37575,-0.456639 0.37575,-0.72851 v -0.317384 h 2.66429 2.66429 v 0.504448 c 0,0.614654 -0.12472,0.931495 -0.56464,1.434378 -0.1854,0.211941 -0.46825,0.650617 -0.62857,0.974837 -0.16031,0.324222 -0.47445,0.835141 -0.69809,1.13538 -0.22364,0.300239 -0.53552,0.805787 -0.69307,1.123442 -0.15755,0.317656 -0.44384,0.786801 -0.63621,1.042549 -0.19236,0.255746 -0.47881,0.726187 -0.63654,1.045424 -0.15773,0.319237 -0.45296,0.805761 -0.65606,1.081161 -0.2031,0.275401 -0.50069,0.766378 -0.6613,1.091059 -0.16063,0.324684 -0.43801,0.774991 -0.61641,1.000688 -0.17841,0.225696 -0.46384,0.68983 -0.63429,1.031408 -0.17046,0.34158 -0.4407,0.796018 -0.60054,1.009861 -0.40755,0.545241 -0.55464,0.85928 -0.93917,2.005191 l -0.33688,1.003933 -0.009,3.565377 c -0.009,3.469551 -0.0134,3.572371 -0.16994,3.825615 -0.0885,0.143133 -0.31025,0.345795 -0.49286,0.450362 -0.31739,0.181738 -0.39844,0.191034 -1.83793,0.210768 -1.34137,0.01839 -1.53965,0.0047 -1.81481,-0.124956 z M 9.891799,37.825945 9.5249771,37.79702 V 26.101552 14.406085 h 8.1859259 8.18593 l 0.0012,0.250985 c 5.84e-4,0.13804 0.05193,0.396806 0.114028,0.575035 0.140912,0.404451 0.173004,2.093177 0.04837,2.545609 -0.118132,0.428846 -0.446654,0.764875 -0.855386,0.874933 -0.24018,0.06467 -1.638935,0.08433 -4.99675,0.0702 -5.314828,-0.02236 -4.902076,-0.07463 -5.277447,0.66831 -0.188891,0.373859 -0.193062,0.419658 -0.193062,2.119694 0,1.99649 0.06028,2.338637 0.476378,2.703979 0.144453,0.126829 0.339622,0.23346 0.433711,0.236957 0.09409,0.0035 1.90865,0.01217 4.032357,0.01929 l 3.861287,0.01296 0.367914,0.181177 c 0.552146,0.271898 0.781316,0.706517 0.775861,1.4714 -0.0085,1.193231 -0.256674,1.790022 -0.863421,2.076388 -0.252827,0.119328 -0.679072,0.133207 -4.341028,0.141342 -4.569083,0.01016 -4.323743,-0.0216 -4.644711,0.601275 -0.160272,0.311029 -0.162727,0.381716 -0.144286,4.153637 0.02539,5.194294 0.250707,4.781079 -2.595208,4.759526 -1.010871,-0.0076 -2.003019,-0.02694 -2.2047701,-0.04284 z"
       style="fill:#cacaca;stroke-width:0.07722574" />
  </g>
</svg>
