<?xml version="1.0" encoding="UTF-8" standalone="no"?>
<svg
   xmlns:dc="http://purl.org/dc/elements/1.1/"
   xmlns:cc="http://creativecommons.org/ns#"
   xmlns:rdf="http://www.w3.org/1999/02/22-rdf-syntax-ns#"
   xmlns:svg="http://www.w3.org/2000/svg"
   xmlns="http://www.w3.org/2000/svg"
   id="svg8"
   version="1.1"
   viewBox="0 0 210 297"
   height="297mm"
   width="210mm">
  <defs
     id="defs2" />
  <metadata
     id="metadata5">
    <rdf:RDF>
      <cc:Work
         rdf:about="">
        <dc:format>image/svg+xml</dc:format>
        <dc:type
           rdf:resource="http://purl.org/dc/dcmitype/StillImage" />
        <dc:title></dc:title>
      </cc:Work>
    </rdf:RDF>
  </metadata>
  <g
     id="layer1">
    <path
       id="path47"
       d="m 75.593934,44.820602 c -0.212248,-0.03251 -0.796373,-0.110343 -1.298054,-0.172957 -0.998703,-0.124651 -2.125787,-0.335811 -2.455775,-0.460101 -0.115774,-0.0436 -0.510452,-0.24951 -0.877065,-0.457571 -0.366611,-0.208061 -1.021054,-0.519405 -1.454317,-0.691877 -0.80152,-0.31907 -1.055319,-0.463262 -1.492615,-0.848001 -0.135068,-0.118831 -0.577106,-0.434671 -0.98231,-0.701862 -0.890414,-0.587137 -2.675064,-2.342002 -3.15752,-3.104824 -0.32741,-0.517671 -0.766068,-1.18584 -1.142341,-1.740026 -0.313166,-0.461241 -0.413351,-0.731919 -0.745141,-2.013259 -0.152956,-0.590702 -0.327081,-1.190176 -0.386943,-1.332168 -0.473206,-1.122444 -0.649444,-2.636895 -0.532518,-4.576023 0.05651,-0.937126 0.114217,-1.322342 0.307687,-2.053805 1.019251,-3.853521 1.001456,-3.802365 1.63209,-4.692221 0.190283,-0.268498 0.512107,-0.789746 0.715167,-1.158329 0.30979,-0.562319 0.51826,-0.820976 1.295578,-1.60748 0.509511,-0.515532 1.273698,-1.200047 1.698197,-1.521143 0.424499,-0.321099 0.929688,-0.713456 1.122643,-0.871905 0.392438,-0.322259 1.087086,-0.668797 1.824289,-0.910079 0.270137,-0.08841 0.686677,-0.280407 0.925649,-0.426652 0.99738,-0.610382 1.555163,-0.791639 3.003595,-0.976051 0.347318,-0.04421 1.120888,-0.159072 1.719044,-0.25523 1.463516,-0.235269 3.024493,-0.245057 4.56073,-0.02859 0.598156,0.08428 1.513812,0.199304 2.034787,0.255605 2.390676,0.258343 3.209392,0.489789 4.169993,1.178826 0.905514,0.649529 1.04234,1.465033 0.436781,2.603362 -0.170499,0.320504 -0.393818,0.834424 -0.496267,1.142044 -0.376695,1.131131 -0.776412,1.499831 -1.785421,1.646895 -0.516209,0.07524 -0.720623,0.06356 -2.166724,-0.123709 -1.406313,-0.182122 -1.79758,-0.205926 -3.28071,-0.199596 -2.770514,0.01183 -3.734891,0.20993 -4.996905,1.026474 -0.432849,0.28006 -1.020125,0.654682 -1.305056,0.832495 -0.434147,0.27093 -0.589732,0.424353 -0.960566,0.947227 -0.243379,0.343165 -0.576191,0.777306 -0.739578,0.964761 -0.547096,0.627686 -0.722032,1.129395 -1.092185,3.132344 -0.29215,1.580871 -0.200052,3.080745 0.319128,5.197057 0.199842,0.814616 0.405747,1.231056 0.882263,1.784368 0.199407,0.231543 0.483069,0.594648 0.630355,0.806896 0.147287,0.212251 0.404987,0.515984 0.572662,0.674969 0.438285,0.415567 2.731221,1.757256 3.286877,1.923292 0.57094,0.170597 2.267456,0.348673 3.321804,0.348673 0.846149,0 2.36116,-0.141037 3.505371,-0.326323 0.969049,-0.156921 2.288293,-0.108068 2.688366,0.09956 0.626314,0.325037 0.827703,0.600342 1.192407,1.630069 0.102512,0.289432 0.321341,0.778834 0.486281,1.087558 0.346401,0.648342 0.425759,1.017594 0.311207,1.448025 -0.151747,0.57017 -0.462184,0.858279 -1.462457,1.357256 -0.98901,0.493361 -1.915513,0.702443 -4.394692,0.991737 -1.588999,0.185419 -4.702503,0.282927 -5.437791,0.170297 z m 27.341926,-0.219607 c -1.02784,-0.05882 -2.23304,-0.259094 -2.86099,-0.475431 -0.208583,-0.07186 -0.694982,-0.28838 -1.080886,-0.481155 -0.385913,-0.192777 -0.922674,-0.422315 -1.192812,-0.510089 -0.741351,-0.240875 -1.280635,-0.529132 -1.824289,-0.975111 -0.270138,-0.221604 -0.783445,-0.601806 -1.140688,-0.844892 -0.357242,-0.243088 -0.731911,-0.540987 -0.832594,-0.661999 -0.100683,-0.121012 -0.487237,-0.538168 -0.859015,-0.927012 -0.500713,-0.523711 -0.775998,-0.886097 -1.06186,-1.397868 -0.212251,-0.379984 -0.48722,-0.823908 -0.611041,-0.986499 -0.390478,-0.512737 -0.635777,-0.983413 -0.826848,-1.586568 -0.101829,-0.321449 -0.34174,-1.058069 -0.533128,-1.636931 -0.695554,-2.103728 -0.836476,-2.932999 -0.834218,-4.908887 0.0017,-1.8425 0.157997,-2.76206 0.755741,-4.458146 0.156407,-0.443794 0.352438,-1.075279 0.435617,-1.403302 0.189395,-0.746782 0.457045,-1.313829 0.895185,-1.896496 0.18777,-0.249717 0.497343,-0.720614 0.687918,-1.046435 0.191353,-0.327129 0.551016,-0.798417 0.803214,-1.052476 0.251182,-0.253042 0.629484,-0.660373 0.840675,-0.90518 0.211199,-0.244809 0.577129,-0.592126 0.813201,-0.771817 0.236064,-0.179691 0.66154,-0.52897 0.945496,-0.776182 0.372001,-0.323856 0.733878,-0.551708 1.294863,-0.815299 0.428212,-0.201206 1.029479,-0.522814 1.336162,-0.714681 0.811569,-0.507748 1.630525,-0.775617 2.732707,-0.893834 0.23155,-0.02482 1.06827,-0.126194 1.85937,-0.225239 1.59444,-0.199624 2.80661,-0.197366 4.17483,0.0078 0.38591,0.05786 1.11212,0.167112 1.61379,0.242782 1.19448,0.180168 1.75854,0.362465 2.52594,0.816361 0.34733,0.205427 0.97881,0.523464 1.40331,0.706757 0.88483,0.382054 1.15128,0.53679 1.54363,0.896493 0.15436,0.141514 0.53325,0.44391 0.84198,0.671991 0.74721,0.552021 2.16689,2.066247 2.67144,2.849334 0.22176,0.344181 0.52035,0.767865 0.66353,0.941522 0.39704,0.481515 0.60186,0.881627 0.86307,1.685946 0.13124,0.404113 0.39761,1.082248 0.59191,1.50697 0.19431,0.424722 0.40354,0.945696 0.46495,1.157722 0.44844,1.548231 0.5065,4.97613 0.11585,6.840548 -0.0728,0.347395 -0.24808,0.90001 -0.38955,1.228029 -0.54704,1.268461 -0.6552,1.5406 -0.7706,1.938869 -0.21818,0.752961 -0.50777,1.27948 -1.09469,1.990377 -0.14338,0.17366 -0.40553,0.552551 -0.58257,0.841981 -0.47439,0.775571 -2.00786,2.324956 -2.814,2.843203 -0.34732,0.223282 -0.85184,0.577903 -1.12117,0.788049 -0.58069,0.453097 -0.9014,0.619602 -1.78426,0.926366 -0.36309,0.126159 -0.94721,0.380053 -1.29806,0.564207 -1.12165,0.588737 -2.03356,0.789311 -4.14616,0.911938 -1.3208,0.07667 -1.79021,0.07584 -3.21495,-0.0057 z m 3.66441,-6.693691 c 0.52679,-0.164054 2.62845,-1.256146 3.08242,-1.601726 0.55584,-0.423123 1.0788,-1.031157 1.733,-2.014914 0.98554,-1.482028 1.08757,-1.745966 1.26033,-3.260487 0.11963,-1.048792 0.13102,-2.082795 0.034,-3.08726 -0.14087,-1.458595 -0.39011,-2.261799 -0.94769,-3.05411 -0.14862,-0.21119 -0.48296,-0.703094 -0.74297,-1.093127 -0.5338,-0.800719 -0.62509,-0.881138 -2.00261,-1.764104 -1.69843,-1.088667 -2.02232,-1.173387 -4.29642,-1.123794 -1.73273,0.03778 -2.19607,0.123794 -2.88074,0.534723 -1.66146,0.997194 -1.955368,1.201431 -2.488787,1.729447 -0.312027,0.308867 -0.695828,0.766693 -0.852876,1.017394 -0.741556,1.183711 -1.247613,2.084102 -1.367953,2.433889 -0.206599,0.600474 -0.307393,1.50291 -0.304161,2.722981 0.0051,1.808994 0.18789,2.670012 0.767747,3.610516 0.17296,0.280532 0.462551,0.798537 0.643541,1.151125 0.277397,0.540408 0.459841,0.774943 1.161867,1.493647 l 0.832792,0.852577 1.27556,0.663763 c 1.38195,0.719118 1.56097,0.791874 2.19103,0.890408 0.65093,0.101802 2.45207,0.03914 2.90192,-0.100948 z m 27.89706,6.660765 c -2.14822,-0.156304 -2.85583,-0.314882 -4.21039,-0.94357 -0.31418,-0.14581 -0.8162,-0.332321 -1.11562,-0.414467 -1.01947,-0.279685 -1.63782,-0.560356 -2.16812,-0.984106 -0.27748,-0.221732 -0.74132,-0.53973 -1.03075,-0.70666 -0.72226,-0.416559 -0.96842,-0.612967 -1.183,-0.943864 -0.15662,-0.241522 -0.18384,-0.36125 -0.18418,-0.809673 -8e-4,-0.511131 0.0126,-0.551177 0.45263,-1.395107 0.48088,-0.922315 0.82173,-1.335251 1.68019,-2.035547 0.68326,-0.557373 0.93791,-0.669909 1.51472,-0.669405 0.45442,5.3e-4 0.54604,0.02839 1.22493,0.374239 0.40357,0.205598 1.14557,0.514776 1.64888,0.687064 0.5033,0.172288 1.12034,0.408295 1.37118,0.524459 1.30809,0.605775 2.00054,0.777505 3.65067,0.905369 1.78823,0.138566 3.37754,-0.0037 4.08749,-0.365905 0.6443,-0.328693 1.24087,-1.188636 1.24228,-1.790723 7.9e-4,-0.382466 -0.20332,-0.846539 -0.59852,-1.360139 -0.54481,-0.708012 -1.06227,-1.002236 -2.29197,-1.303198 -0.46728,-0.114363 -1.05679,-0.335077 -1.66955,-0.625092 -0.9303,-0.440293 -1.47225,-0.604373 -3.2529,-0.984852 -0.37842,-0.08086 -0.82974,-0.259895 -1.43785,-0.570389 -0.48747,-0.248897 -1.13915,-0.525809 -1.44816,-0.615362 -1.01526,-0.294215 -1.56155,-0.544145 -2.0532,-0.939347 -0.2603,-0.209239 -0.71514,-0.535254 -1.01075,-0.724475 -0.37923,-0.242742 -0.76771,-0.593958 -1.3194,-1.192828 -0.99345,-1.078409 -1.09324,-1.273069 -1.45023,-2.828837 -0.34545,-1.505502 0.0523,-4.189802 0.76838,-5.185398 0.52753,-0.733467 1.22966,-1.57567 1.58505,-1.901275 0.21061,-0.192952 0.59028,-0.542728 0.84371,-0.777279 0.60133,-0.556529 0.7765,-0.672606 1.48367,-0.98316 0.325,-0.142726 0.87526,-0.423505 1.22279,-0.623954 1.04327,-0.601736 1.62759,-0.734931 4.15247,-0.946543 2.13895,-0.179266 3.66036,-0.17985 5.68671,-0.0021 2.68335,0.235275 3.26087,0.361837 4.45883,0.977148 0.4329,0.222348 0.99232,0.472688 1.24316,0.556316 1.53216,0.510794 1.83742,1.123949 1.30453,2.620281 -0.62089,1.743393 -0.75315,1.964312 -1.44329,2.410766 -1.00474,0.649962 -1.68877,0.75737 -2.66785,0.418901 -1.04893,-0.362617 -1.44926,-0.438883 -4.23252,-0.806315 -1.27096,-0.167789 -3.69198,-0.0016 -4.73361,0.324853 -1.0166,0.318648 -1.49061,0.906152 -1.48691,1.842928 0.003,0.742473 0.39534,1.251021 1.19655,1.550655 0.22317,0.08346 0.62113,0.27806 0.88435,0.432444 0.81092,0.47563 1.08734,0.595151 1.74155,0.753049 1.115,0.269107 1.8063,0.498731 2.59032,0.860405 0.99914,0.460916 1.37751,0.588183 2.38245,0.801344 1.02317,0.217029 1.37708,0.353483 2.07054,0.798321 0.29766,0.190935 0.66599,0.398175 0.81851,0.460526 1.16287,0.475386 1.58118,0.746901 2.51229,1.630679 0.50735,0.48156 1.03103,1.035035 1.16372,1.229941 0.27201,0.399531 1.06756,2.405151 1.27139,3.205242 0.15972,0.626908 0.17338,1.467547 0.0342,2.104952 -0.12496,0.572344 -1.00954,2.778633 -1.27681,3.184576 -0.36241,0.550441 -1.0991,1.315081 -1.98128,2.056453 -0.91986,0.773024 -1.2198,0.955075 -2.12106,1.287378 -0.30863,0.113796 -0.85138,0.362186 -1.20611,0.55198 -1.10843,0.593042 -2.02186,0.785551 -4.35397,0.917625 -1.57398,0.08914 -2.7514,0.07881 -4.36016,-0.03824 z M 29.718138,44.46138 c -0.606003,-0.0784 -0.881468,-0.17894 -1.132325,-0.413279 -0.299605,-0.279871 -0.299,-0.76743 0.0019,-1.403145 0.118026,-0.249486 0.324172,-0.849398 0.458101,-1.333135 0.175594,-0.634228 0.390228,-1.173053 0.769587,-1.931999 0.411348,-0.822951 0.571639,-1.236097 0.735002,-1.894457 0.261865,-1.05533 0.263587,-1.05989 0.847478,-2.245282 0.379979,-0.771415 0.545848,-1.215806 0.772578,-2.069869 0.158797,-0.598159 0.343483,-1.198068 0.41042,-1.333138 0.06693,-0.135067 0.292739,-0.577106 0.501786,-0.982309 0.209047,-0.405204 0.438251,-0.973542 0.509341,-1.262971 0.281593,-1.146457 0.563711,-1.956668 0.879545,-2.525942 0.45293,-0.816382 0.593215,-1.173262 0.809746,-2.059954 0.222835,-0.912498 0.395326,-1.388643 0.72617,-2.004548 0.482846,-0.898864 0.569527,-1.121389 0.887832,-2.279166 0.262574,-0.955056 0.412263,-1.347235 0.81373,-2.13194 0.404928,-0.791468 0.535632,-1.135383 0.738779,-1.943904 0.34488,-1.372615 0.545545,-1.682294 1.327232,-2.048273 l 0.420784,-0.19701 3.052181,-0.03508 c 3.573928,-0.04108 4.968314,0.01461 5.518365,0.220416 0.472464,0.176771 0.883454,0.59417 1.388986,1.410647 0.482027,0.778513 0.716536,1.366181 0.885187,2.218247 0.22334,1.128371 0.36522,1.567153 0.826018,2.554557 0.347848,0.745369 0.579227,1.462784 0.780072,2.418677 0.197119,0.938173 0.34809,1.386553 0.803316,2.385813 0.376955,0.827451 0.653382,1.692935 0.812526,2.543996 0.12714,0.679909 0.399987,1.505133 0.719171,2.175115 0.386545,0.811375 0.589203,1.411373 0.789918,2.338644 0.23223,1.072888 0.40959,1.620108 0.783814,2.418397 0.436567,0.931278 0.62978,1.516172 0.827509,2.505046 0.183918,0.919787 0.410977,1.589856 0.903497,2.66627 0.380883,0.832429 0.889086,2.620873 0.889086,3.128826 0,0.486568 -0.159774,0.730042 -0.630933,0.961442 l -0.386457,0.189802 -2.350532,-0.0069 c -2.25415,-0.0067 -2.367111,-0.01336 -2.754969,-0.163286 -0.497786,-0.192416 -1.015172,-0.664374 -1.351748,-1.233067 -0.266382,-0.450085 -0.465835,-1.059435 -0.76938,-2.35053 -0.352269,-1.498333 -0.984797,-2.430897 -2.000077,-2.948809 l -0.315744,-0.161067 -4.525644,-0.0085 c -5.045844,-0.0095 -4.88391,-0.02333 -5.531564,0.472531 -0.697661,0.534141 -1.214834,1.346219 -1.486442,2.33405 -0.485917,1.767257 -0.606232,1.995221 -1.574467,2.983152 -0.705428,0.719783 -0.951494,0.869947 -1.588646,0.969494 -0.59464,0.09291 -3.627304,0.145378 -4.190569,0.0725 z M 46.952395,31.405974 c 0.231185,-0.111913 0.344276,-0.224219 0.441604,-0.43853 0.243909,-0.537085 0.161699,-0.942507 -0.438726,-2.163617 -0.186965,-0.380239 -0.47889,-1.155747 -0.648724,-1.723356 -0.169833,-0.567606 -0.467133,-1.363541 -0.660669,-1.768745 -0.193534,-0.405203 -0.450936,-1.020902 -0.572003,-1.368218 -0.293863,-0.843038 -0.501161,-1.182525 -0.812195,-1.330119 -0.293924,-0.139478 -0.514807,-0.104274 -0.755219,0.120359 -0.236934,0.221389 -0.347901,0.468117 -0.607207,1.350089 -0.124804,0.424499 -0.395046,1.135941 -0.600535,1.580982 -0.20549,0.445041 -0.488489,1.202823 -0.628884,1.683962 -0.272247,0.932994 -0.471933,1.509903 -0.776367,2.243015 -0.333063,0.802043 -0.254719,1.318139 0.258237,1.701114 0.281689,0.210312 0.732606,0.246516 3.179084,0.255254 2.228061,0.008 2.321965,0.0029 2.621604,-0.14219 z M 163.79141,44.45557 c -1.18678,-0.06265 -1.53948,-0.198686 -1.82298,-0.703098 l -0.15224,-0.270887 -0.0122,-10.505772 c -0.0117,-10.043957 -0.0179,-10.520502 -0.14224,-10.840874 -0.0715,-0.184305 -0.22842,-0.433518 -0.3487,-0.553803 -0.44444,-0.444431 -0.354,-0.435236 -4.3276,-0.439946 -3.60879,-0.0043 -3.61389,-0.0044 -3.90883,-0.162114 -0.78508,-0.419569 -0.89419,-0.784408 -0.84391,-2.821852 0.0401,-1.623984 0.1358,-2.145725 0.4903,-2.671755 0.4039,-0.599342 1.16111,-0.932162 2.37785,-1.045149 0.86341,-0.08018 22.75041,-0.112414 22.96919,-0.03383 0.24771,0.08898 0.59338,0.381617 0.70443,0.59635 0.21085,0.407734 0.24372,0.902145 0.17927,2.69598 -0.0711,1.980853 -0.13073,2.264127 -0.56796,2.701355 -0.53063,0.530626 -1.37128,0.639974 -5.05188,0.657127 -2.69358,0.01254 -2.92066,0.03956 -3.27518,0.389573 -0.10094,0.09965 -0.24993,0.323273 -0.33109,0.49693 l -0.14757,0.315744 -0.012,10.60456 c -0.0121,10.571399 -0.0126,10.605452 -0.15722,10.889063 -0.15093,0.295823 -0.47607,0.583367 -0.77792,0.687934 -0.206,0.07136 -3.57308,0.08142 -4.84139,0.01448 z M 6.2023002,44.381949 C 5.6601756,44.28942 5.2192487,43.904813 5.072521,43.396485 5.032701,43.258546 5.0049545,37.700055 5.0021499,29.300957 4.9976181,15.621291 4.9994137,15.429515 5.1362065,15.162697 5.3118393,14.82015 5.5314204,14.615258 5.8859088,14.463144 c 0.2385419,-0.10236 0.517186,-0.119115 1.8934993,-0.113849 2.0444322,0.0078 2.9619949,0.09731 3.4523039,0.336684 0.65331,0.318955 1.221235,1.115039 1.459806,2.046275 0.104356,0.407339 0.164254,5.131593 0.204855,16.157295 0.01214,3.298736 0.01392,3.337027 0.173742,3.74204 0.323535,0.819904 0.81033,1.133172 1.760882,1.133188 0.289429,2e-6 1.931292,-0.01111 3.648583,-0.02469 3.033114,-0.024 3.141245,-0.02023 3.78375,0.132158 1.152741,0.273395 1.504949,0.48959 1.810181,1.111139 0.194634,0.396338 0.194693,0.396906 0.219111,2.158907 0.03252,2.34609 -0.07048,2.803099 -0.705625,3.130813 -0.251639,0.12984 -0.537345,0.134662 -8.676708,0.146433 -4.629071,0.0067 -8.5476683,-0.01021 -8.7079888,-0.03758 z m 178.4880198,-0.0253 c -0.38334,-0.118012 -0.71971,-0.464637 -0.82748,-0.852712 -0.10944,-0.394079 -0.10309,-27.839579 0.007,-28.16272 0.12555,-0.370201 0.32547,-0.613457 0.6442,-0.783874 l 0.29228,-0.156283 h 9.82311 c 9.21759,0 9.83783,0.0075 10.06192,0.122789 0.13975,0.07185 0.39445,0.122788 0.61395,0.122788 h 0.37513 v 2.771522 2.771519 h -0.39059 c -0.30714,0 -0.43908,0.03698 -0.61755,0.173109 -0.37135,0.283243 -1.00799,0.529114 -1.5787,0.609692 -0.33614,0.04746 -1.93302,0.07219 -4.28934,0.06643 -4.2572,-0.01042 -5.69247,0.04991 -6.17452,0.259531 -0.63286,0.275197 -0.82217,0.657713 -0.91934,1.857585 -0.0866,1.069843 -0.0111,1.496063 0.33252,1.876424 0.47562,0.526447 0.3539,0.513883 5.39312,0.556788 l 4.49056,0.03824 0.3165,0.186074 c 0.19631,0.115413 0.38225,0.301925 0.48964,0.491154 l 0.17316,0.305081 -0.0114,2.150392 c -0.007,1.351015 -0.0412,2.263915 -0.0916,2.455778 -0.17432,0.663695 -0.70567,1.157913 -1.31956,1.227335 -0.1807,0.02044 -2.20722,0.04238 -4.50337,0.04875 -4.07271,0.01132 -4.18169,0.01514 -4.45549,0.156821 -0.61387,0.317624 -0.91191,1.118664 -0.91191,2.45089 0,1.36674 0.28478,2.110018 0.93162,2.431531 l 0.33112,0.164577 5.71845,0.03508 5.71845,0.03508 0.32035,0.157873 c 0.20744,0.10222 0.44859,0.157871 0.68411,0.157871 h 0.36376 v 2.455779 2.455776 H 205.285 c -0.39322,0 -0.39801,0.0027 -0.90994,0.488853 -0.60158,0.571443 -1.01009,0.795935 -1.64745,0.905339 -0.32726,0.05618 -2.97465,0.07785 -9.08637,0.07439 -7.27104,-0.0041 -8.67572,-0.02063 -8.95058,-0.105255 z"
       style="fill:#cacaca;stroke-width:0.07016506" />
  </g>
</svg>
