<?xml version="1.0" encoding="UTF-8" standalone="no"?>
<svg
   xmlns:dc="http://purl.org/dc/elements/1.1/"
   xmlns:cc="http://creativecommons.org/ns#"
   xmlns:rdf="http://www.w3.org/1999/02/22-rdf-syntax-ns#"
   xmlns:svg="http://www.w3.org/2000/svg"
   xmlns="http://www.w3.org/2000/svg"
   id="svg8"
   version="1.1"
   viewBox="0 0 210 297"
   height="297mm"
   width="210mm">
  <defs
     id="defs2" />
  <metadata
     id="metadata5">
    <rdf:RDF>
      <cc:Work
         rdf:about="">
        <dc:format>image/svg+xml</dc:format>
        <dc:type
           rdf:resource="http://purl.org/dc/dcmitype/StillImage" />
        <dc:title></dc:title>
      </cc:Work>
    </rdf:RDF>
  </metadata>
  <g
     id="layer1">
    <path
       id="path60"
       d="m 178.40263,59.673774 c 0,-0.215613 -0.0532,-0.492834 -0.12026,-0.627384 -0.13632,-0.273266 -0.23052,-1.098315 -0.23488,-2.057228 -0.007,-1.451375 0.50646,-1.806008 2.77575,-1.918628 1.46089,-0.0725 1.93675,-0.195789 2.71855,-0.704337 0.29316,-0.190698 0.80559,-0.50769 1.13872,-0.704433 0.33313,-0.196739 0.71428,-0.48777 0.84699,-0.646735 0.48512,-0.581066 1.53259,-2.031491 1.68385,-2.331619 0.19573,-0.388339 0.29719,-1.171181 0.21731,-1.676555 -0.0718,-0.454229 -0.38188,-0.82985 -0.77455,-0.93827 -0.13482,-0.03722 -0.73781,-0.04945 -1.33996,-0.02715 -1.01309,0.03751 -1.12646,0.02851 -1.5186,-0.120547 -0.57823,-0.219789 -0.93403,-0.59639 -1.28604,-1.361159 -0.40037,-0.86985 -0.55309,-1.154097 -0.82152,-1.529098 -0.31615,-0.441651 -0.55336,-0.928321 -0.81713,-1.676388 -0.26363,-0.747697 -0.44022,-1.106285 -0.82284,-1.670892 -0.37681,-0.556028 -0.64434,-1.1118 -0.88008,-1.828299 -0.10627,-0.322994 -0.30058,-0.761957 -0.4318,-0.97547 -0.13122,-0.213513 -0.36898,-0.599561 -0.52836,-0.857878 -0.15936,-0.258319 -0.42344,-0.834866 -0.58683,-1.281214 -0.35264,-0.963369 -0.4198,-1.099036 -0.84555,-1.708078 -0.36745,-0.525647 -0.57431,-0.966355 -0.86185,-1.836153 -0.12275,-0.371344 -0.35904,-0.843947 -0.62271,-1.245495 -0.53258,-0.811069 -0.64777,-1.038106 -0.9232,-1.819551 -0.27208,-0.771981 -0.42041,-1.066618 -0.87483,-1.737801 -0.34198,-0.505115 -0.49737,-0.829623 -0.90085,-1.881238 -0.20176,-0.525865 -0.40075,-0.870159 -0.81473,-1.409654 -0.33046,-0.430653 -0.55597,-0.937125 -0.74242,-1.667346 -0.27774,-1.087831 -0.16696,-1.574652 0.41709,-1.833007 0.30023,-0.132808 0.54974,-0.155276 2.28903,-0.206129 1.07364,-0.03139 2.81603,-0.05902 3.87199,-0.06139 l 1.91991,-0.0043 0.39231,0.198705 c 0.45475,0.230339 0.75978,0.644369 1.15334,1.56549 0.13441,0.314578 0.37285,0.769795 0.52989,1.011599 0.43907,0.676112 0.66844,1.178665 0.98752,2.163713 0.20822,0.642757 0.39615,1.062463 0.64961,1.450721 0.49881,0.764095 0.59858,0.977486 0.9336,1.996703 0.16238,0.493948 0.39391,1.06067 0.51452,1.259375 0.12063,0.198708 0.34843,0.572638 0.50625,0.830955 0.16897,0.276577 0.40531,0.844879 0.57486,1.382299 0.2211,0.700819 0.39881,1.09491 0.7657,1.698039 0.35723,0.587238 0.55562,1.022424 0.78625,1.724754 0.37438,1.140153 0.52771,1.498026 0.87311,2.037969 0.35129,0.549163 0.49214,0.889852 0.79587,1.925153 0.13958,0.47583 0.30101,0.956441 0.3587,1.068017 0.41018,0.793189 1.18581,0.757381 1.80287,-0.08323 0.50745,-0.69127 0.75081,-1.393687 1.22149,-3.525637 0.13646,-0.61809 0.29497,-1.059046 0.64936,-1.806423 0.46095,-0.97209 0.67327,-1.614398 0.98367,-2.975799 0.10783,-0.472923 0.31242,-1.01404 0.65773,-1.739635 0.3771,-0.792378 0.55498,-1.275512 0.71831,-1.950939 0.38754,-1.602559 0.50679,-1.962146 0.93164,-2.809261 0.47959,-0.956258 0.55612,-1.162646 0.87202,-2.351646 0.3421,-1.287615 0.60038,-1.721515 1.36841,-2.298856 0.74433,-0.559524 0.83389,-0.569948 4.66305,-0.542764 3.20999,0.02278 3.33519,0.02886 3.65563,0.177068 0.37565,0.173742 0.63397,0.489595 0.69179,0.845826 0.0814,0.501772 -0.84136,3.383882 -1.37309,4.288547 -0.54723,0.931016 -0.59062,1.043357 -1.05546,2.732682 -0.0875,0.317932 -0.40035,1.065792 -0.69525,1.661912 -0.41947,0.847893 -0.58414,1.27769 -0.75642,1.974214 -0.27248,1.101606 -0.43141,1.532551 -0.87077,2.361205 -0.38976,0.735092 -0.54916,1.17884 -0.86125,2.397523 -0.14272,0.557337 -0.3349,1.076219 -0.55663,1.502942 -0.61676,1.186899 -0.66813,1.316014 -0.96087,2.414823 -0.33746,1.266642 -0.45519,1.581351 -0.86767,2.319421 -0.39389,0.704837 -0.58718,1.222766 -0.83591,2.239965 -0.15713,0.642574 -0.31481,1.048735 -0.69555,1.791585 -0.34827,0.67952 -0.58953,1.282137 -0.82444,2.059322 -0.37437,1.238559 -0.41153,1.32175 -0.92633,2.074165 -0.20393,0.298062 -0.44826,0.737022 -0.54293,0.975471 -0.31836,0.801767 -0.64142,1.370175 -1.02813,1.80896 -0.21138,0.239846 -0.55497,0.650813 -0.76353,0.913268 -0.33158,0.417268 -0.90379,0.931395 -2.07976,1.868657 -0.19869,0.158361 -0.61624,0.360597 -1.09849,0.532042 -0.42788,0.152119 -1.05436,0.379461 -1.39215,0.505208 l -0.61419,0.228627 -0.0217,0.413504 -0.0217,0.413505 h -5.16277 -5.16277 V 59.673771 Z M 16.041199,48.377532 C 14.293473,48.248895 12.724834,48.005074 11.163852,47.619414 10.527991,47.462321 9.6633275,47.271321 9.2423783,47.194977 7.8898724,46.949682 7.6118596,46.832453 6.6425872,46.098737 5.6427845,45.341914 5.3650987,45.04977 4.8751459,44.239297 L 4.5235835,43.65775 H 4.1044193 3.6852552 v -2.095453 -2.095454 l 0.379347,-0.0011 c 0.2086465,-5.46e-4 0.5146797,-0.04821 0.6800864,-0.105838 0.255735,-0.08911 0.6612312,-0.09422 2.7096364,-0.03418 1.3248993,0.03884 2.977926,0.0633 3.673399,0.05437 1.372628,-0.01761 1.48005,0.0037 1.90709,0.378647 0.217442,0.190917 0.299235,0.35221 0.487953,0.962244 0.124697,0.403084 0.31613,0.863678 0.425407,1.023546 0.227746,0.333185 1.697704,1.478415 2.129154,1.658804 0.523797,0.219002 1.297618,0.320133 3.407565,0.44534 1.82631,0.108376 2.334107,0.112609 4.107161,0.03424 3.981236,-0.175979 4.499725,-0.297925 5.944087,-1.39804 1.137442,-0.866343 1.413718,-1.268376 1.410242,-2.052165 -0.0017,-0.345741 -0.04624,-0.524456 -0.203496,-0.813376 C 30.517393,39.205056 29.28307,37.965394 28.897345,37.765836 28.234928,37.423104 27.41109,37.350629 22.797226,37.229168 18.364484,37.11248 15.799858,37.015252 14.993473,36.933317 13.549676,36.786614 11.845781,36.456918 8.6731943,35.710369 7.8646967,35.520118 7.4589951,35.308187 6.7200462,34.69008 5.579328,33.735903 5.45313,33.584184 4.9694141,32.585415 L 4.5226936,31.663043 H 4.1039706 3.6852552 v -2.745775 -2.745766 l 0.4154753,-0.0017 0.4154828,-0.0017 0.2588383,-0.512604 c 0.4251728,-0.84198 0.8609179,-1.423565 1.5340145,-2.047412 0.7328032,-0.679201 1.0915989,-0.878029 2.1451506,-1.188754 0.4172846,-0.123069 1.1488846,-0.356684 1.6257803,-0.519142 1.08498,-0.369604 2.04354,-0.556924 3.61285,-0.706016 1.046449,-0.09942 2.309193,-0.115234 8.526325,-0.106811 7.033047,0.0095 7.33992,0.01554 8.454064,0.165374 1.741195,0.234175 2.275777,0.342204 3.08808,0.624052 0.40785,0.14151 1.157829,0.39676 1.666625,0.567223 1.397144,0.468085 1.627518,0.65283 2.776632,2.226676 0.869044,1.190256 1.077068,1.76355 1.021779,2.815928 -0.02149,0.409214 -0.06712,0.606855 -0.172523,0.747412 -0.237171,0.316274 -0.527681,0.530129 -0.775828,0.57111 -0.129003,0.0213 -1.861754,0.04515 -3.850557,0.05298 l -3.616004,0.01425 -0.318628,-0.176216 c -0.375828,-0.207852 -0.652656,-0.560125 -1.047943,-1.333547 -0.341811,-0.668791 -0.630508,-0.966986 -1.224202,-1.264474 -0.584515,-0.292888 -0.877024,-0.356402 -2.28026,-0.495122 -0.913391,-0.0903 -1.876695,-0.115141 -4.118648,-0.106221 -2.756775,0.01098 -2.991884,0.02226 -4.055926,0.194961 -1.760016,0.285643 -2.181214,0.465224 -2.769118,1.180632 -0.753175,0.916523 -0.943076,1.31448 -0.941353,1.972713 8.36e-4,0.364372 0.04164,0.542343 0.181497,0.793825 0.271997,0.489087 0.848213,1.025208 1.33745,1.244378 0.601814,0.269605 2.282738,0.488107 5.055208,0.657122 0.715346,0.0436 1.674556,0.111989 2.131582,0.151957 0.878469,0.07682 2.155053,0.163907 4.118648,0.28096 1.863468,0.111082 3.361015,0.212524 4.227032,0.286331 0.437154,0.03726 1.21753,0.100609 1.734167,0.140784 2.169986,0.168739 2.721884,0.312041 4.545111,1.180176 1.550657,0.738348 1.726859,0.886919 2.411074,2.032972 0.972918,1.629629 1.067942,2.0052 1.057195,4.178429 -0.0086,1.739181 -0.116358,2.249966 -0.678354,3.215436 -0.196633,0.337799 -0.51369,0.88673 -0.704569,1.219843 -0.4313,0.752681 -0.546443,0.849835 -2.607426,2.200113 -0.594009,0.389171 -0.677254,0.414775 -2.794662,0.8595 -3.191177,0.670252 -3.801754,0.763932 -6.611512,1.014418 -1.372966,0.122396 -2.107805,0.136266 -6.322485,0.119321 -2.62293,-0.01054 -4.915284,-0.02994 -5.094119,-0.0431 z m 64.200325,0.0068 c -0.119223,-0.01778 -0.769532,-0.09912 -1.445139,-0.18077 -1.963663,-0.237311 -3.071785,-0.412768 -3.800291,-0.601726 -0.373802,-0.09696 -1.167376,-0.277249 -1.763495,-0.400653 -1.223569,-0.253293 -1.73978,-0.425268 -2.130615,-0.709814 -1.275736,-0.928787 -1.967324,-1.508556 -2.159241,-1.810121 -0.403351,-0.633804 -1.106672,-2.453803 -1.185089,-3.066696 -0.138457,-1.08211 0.132887,-1.719005 0.878898,-2.062947 0.389426,-0.179542 0.466802,-0.187842 1.994795,-0.213952 2.237284,-0.03823 5.085683,0.08535 5.621,0.24387 0.604776,0.179089 0.913626,0.496797 1.363579,1.402696 0.322797,0.649881 0.471333,0.854305 1.03568,1.425286 0.513372,0.519417 0.764163,0.714349 1.135919,0.882913 1.17153,0.531199 4.072137,0.699047 8.871935,0.513395 2.51357,-0.09724 3.175372,-0.235155 4.101085,-0.85464 0.228239,-0.152739 0.573481,-0.368892 0.767205,-0.480348 0.508526,-0.292569 0.856362,-0.631131 1.053067,-1.025016 0.320705,-0.642128 0.215271,-1.722329 -0.230392,-2.36071 -0.149396,-0.213985 -1.389836,-1.182858 -1.752959,-1.369179 -0.368714,-0.189191 -1.255789,-0.334536 -2.312226,-0.378857 -0.556375,-0.02335 -2.897503,-0.08931 -5.202495,-0.146585 -6.483901,-0.16113 -7.447135,-0.280924 -12.820363,-1.594412 -0.824379,-0.201522 -1.119529,-0.403788 -2.345331,-1.607265 -0.914377,-0.897723 -1.07454,-1.180329 -1.41743,-2.50103 -0.362373,-1.395759 -0.456922,-2.239469 -0.360925,-3.2208 0.133307,-1.362758 0.499366,-2.795519 0.860355,-3.367431 0.255733,-0.405156 1.779733,-1.851897 2.147874,-2.038988 0.164347,-0.08352 0.684598,-0.268558 1.156113,-0.411197 0.471516,-0.142639 1.073166,-0.336969 1.336999,-0.431846 0.763993,-0.274735 1.771452,-0.525526 2.591227,-0.645042 1.946978,-0.283849 2.319092,-0.295065 9.790824,-0.295065 6.502345,0 7.427929,0.01401 8.490192,0.128607 1.605944,0.173237 2.438864,0.355941 3.684142,0.808135 0.576774,0.209442 1.227525,0.438398 1.446105,0.508786 0.886583,0.28551 1.134703,0.465825 2.154263,1.565552 0.738,0.796027 0.9937,1.262435 1.13919,2.078019 0.21531,1.20685 0.0822,2.019508 -0.38752,2.366281 -0.4416,0.325999 -0.59765,0.338955 -3.881405,0.322173 -3.271016,-0.01671 -3.733116,-0.05332 -4.34856,-0.344444 -0.480909,-0.227487 -0.763242,-0.554357 -1.114736,-1.290614 -0.514269,-1.077156 -0.97379,-1.353899 -2.5211,-1.518322 -2.154143,-0.228911 -3.692714,-0.279117 -5.804674,-0.189418 -2.856918,0.121343 -4.341897,0.319781 -5.145231,0.687558 -1.050397,0.480886 -1.793658,1.958167 -1.558353,3.097359 0.05035,0.243855 0.151655,0.561147 0.225098,0.705097 0.171621,0.33641 0.634816,0.754374 0.947436,0.854926 0.521122,0.167616 2.827004,0.51715 3.893252,0.590157 0.615991,0.04218 1.932878,0.13813 2.926406,0.213232 0.993536,0.0751 2.11533,0.155564 2.492867,0.17881 3.079704,0.189631 5.364609,0.340943 6.033461,0.399547 0.437153,0.0383 1.315077,0.105997 1.950943,0.150428 1.266779,0.08851 2.500944,0.285799 3.144834,0.502708 0.227782,0.07673 0.953192,0.402852 1.612032,0.724703 1.05004,0.512977 1.24507,0.636278 1.58045,0.999224 0.65688,0.710883 1.21104,1.488872 1.35764,1.905973 0.33819,0.96219 0.45962,3.281056 0.25724,4.912411 -0.17535,1.413504 -0.27675,1.668279 -1.03119,2.590805 -0.85117,1.040814 -1.04899,1.229535 -1.86302,1.777354 -0.43716,0.294192 -0.90223,0.61273 -1.0335,0.707861 -0.33914,0.245765 -0.980918,0.44179 -2.145808,0.655403 -0.556383,0.102027 -1.3205,0.262851 -1.698044,0.35739 -1.239535,0.310383 -2.847168,0.607086 -3.907377,0.721148 -0.821063,0.08833 -2.253522,0.118519 -6.750528,0.142254 -3.139563,0.01657 -5.805845,0.01559 -5.925069,-0.0022 z m 64.091936,-0.0011 c -1.84701,-0.149375 -3.63089,-0.42321 -5.13024,-0.787557 -0.55638,-0.135205 -1.50614,-0.34457 -2.11059,-0.46526 -0.60446,-0.120689 -1.26515,-0.282563 -1.4682,-0.359719 -0.49129,-0.186673 -2.84324,-1.762706 -3.06367,-2.052948 -0.0957,-0.125952 -0.36608,-0.602936 -0.60094,-1.059961 -0.23487,-0.457026 -0.56077,-1.058563 -0.72424,-1.336754 -0.40999,-0.697731 -0.63794,-1.472822 -0.80749,-2.745766 -0.44819,-3.364569 -0.45179,-6.968202 -0.01,-10.020473 0.23782,-1.643235 0.38209,-2.062213 1.05382,-3.060388 0.18634,-0.276899 0.42136,-0.66603 0.52227,-0.864736 0.33842,-0.666425 0.60203,-0.974577 1.27013,-1.484729 0.3653,-0.278935 0.84303,-0.652806 1.06161,-0.830822 0.4737,-0.385804 0.91719,-0.562691 1.985,-0.791738 0.43829,-0.09401 1.2567,-0.333741 1.8187,-0.532728 1.09608,-0.38809 1.95808,-0.571093 3.67489,-0.780176 0.97083,-0.118232 1.72055,-0.131996 7.18957,-0.131996 7.81183,0 7.93733,0.01183 11.01919,1.038982 0.35768,0.11921 0.97547,0.304269 1.37289,0.411246 0.39741,0.106977 0.88282,0.273103 1.07869,0.36917 0.54774,0.268646 1.92816,1.46441 2.32909,2.017533 0.19227,0.265252 0.43338,0.583473 0.5358,0.707153 0.58459,0.705916 0.87348,1.364372 1.11315,2.537101 0.065,0.317929 0.19434,0.903212 0.28749,1.300625 0.20879,0.890825 0.37532,1.910406 0.43668,2.673508 0.0255,0.317931 0.0935,0.877289 0.15091,1.243021 0.1133,0.721414 0.0812,1.142016 -0.1176,1.538873 -0.1536,0.30668 -0.29534,0.436582 -0.7201,0.659959 l -0.32515,0.170997 -12.53659,0.03613 c -9.23429,0.0266 -12.58525,0.05805 -12.72131,0.11934 -0.38279,0.172445 -0.63993,0.462125 -0.76642,0.863419 -0.11342,0.359792 -0.11657,0.503829 -0.0347,1.588091 0.16923,2.241088 0.45786,2.872617 1.70659,3.734129 0.52589,0.362821 1.78355,0.926098 2.42243,1.084948 1.63657,0.406915 6.73673,0.540602 9.03553,0.236835 2.04732,-0.270532 3.121,-0.955362 3.86991,-2.46837 0.43565,-0.880127 0.89516,-1.373278 1.46774,-1.575219 0.36532,-0.128842 0.61332,-0.137399 3.7149,-0.128168 2.82167,0.0084 3.3844,0.02749 3.72719,0.126425 0.8381,0.241898 1.2173,0.774679 1.1335,1.592594 -0.0775,0.756304 -0.51252,1.908906 -1.07437,2.846501 -0.39107,0.652577 -1.10178,1.288402 -2.03985,1.824898 -0.35768,0.204556 -0.88986,0.527701 -1.18262,0.718098 -0.58938,0.383317 -1.0848,0.549841 -2.32185,0.780464 -0.45703,0.0852 -1.28618,0.279247 -1.84256,0.431213 -1.35771,0.370833 -1.91,0.485528 -3.14545,0.653227 -0.93016,0.126258 -1.58733,0.145232 -5.95893,0.172051 -2.70241,0.01657 -5.07605,0.01698 -5.27476,8.36e-4 z m 11.59725,-16.508289 c 0.5903,-0.09613 1.03063,-0.349755 1.28418,-0.739667 0.18307,-0.281547 0.19655,-0.354486 0.18946,-1.025671 -0.009,-0.819661 -0.11389,-1.166224 -0.60531,-1.993387 -0.67818,-1.141554 -1.60721,-1.769007 -2.98793,-2.017998 -1.09905,-0.198192 -4.9001,-0.311349 -7.23768,-0.215463 -3.35498,0.137623 -3.50941,0.18533 -5.21937,1.61234 -0.48328,0.403305 -0.63879,0.585586 -0.82867,0.97127 -0.21905,0.44496 -0.23554,0.532646 -0.26243,1.395595 -0.0269,0.863261 -0.0173,0.945671 0.15349,1.318738 0.18657,0.40753 0.37826,0.582459 0.79552,0.726007 0.3177,0.109288 14.03434,0.07969 14.71874,-0.03176 z m -38.83812,16.267188 c -3.35012,-0.03999 -3.39958,-0.04272 -3.65457,-0.201308 -0.30414,-0.189153 -0.59668,-0.695914 -0.70736,-1.225393 -0.085,-0.406691 -0.11751,-35.277394 -0.034,-36.458436 l 0.0447,-0.6322475 h 4.93036 4.93035 l 0.0411,0.6322475 c 0.0769,1.184649 0.0504,35.729182 -0.0278,36.214688 -0.12007,0.745573 -0.47873,1.312976 -0.9627,1.523018 -0.41967,0.182136 -0.75232,0.192891 -4.56003,0.147431 z m -66.295784,-0.07076 c -0.668556,-0.136641 -1.123017,-0.574697 -1.307675,-1.260467 -0.105637,-0.392305 -0.105637,-23.544642 0,-23.936946 0.132606,-0.492468 0.459957,-0.923864 0.846613,-1.115701 l 0.352677,-0.174982 h 3.721233 c 3.471039,0 3.739245,0.009 3.989116,0.13322 0.512846,0.255043 0.847877,0.720466 0.99672,1.384641 0.05109,0.227958 0.07576,4.051294 0.07576,11.741295 0,7.69 -0.02466,11.513337 -0.07576,11.741295 -0.148843,0.664175 -0.483874,1.129599 -0.99672,1.384641 -0.24838,0.123522 -0.525623,0.134004 -3.808473,0.143955 -1.947325,0.0059 -3.654395,-0.01253 -3.793491,-0.04095 z M 53.542571,15.55588 C 50.93209,15.51905 50.515846,15.498 50.327136,15.393256 49.788012,15.094015 49.543125,14.675808 49.42976,13.860754 49.34231,13.231986 49.327376,11.561532 49.39877,10.394569 l 0.0471,-0.7699378 h 4.966854 4.966852 l 0.05284,0.5599908 c 0.147461,1.562742 0.07776,3.561224 -0.147126,4.218607 -0.152656,0.446233 -0.538845,0.883719 -0.917931,1.039854 -0.382547,0.157563 -0.86033,0.168732 -4.824804,0.112797 z"
       style="fill:#cacaca;stroke-width:0.07225698" />
  </g>
</svg>
