<?xml version="1.0" encoding="UTF-8" standalone="no"?>
<svg
   xmlns:dc="http://purl.org/dc/elements/1.1/"
   xmlns:cc="http://creativecommons.org/ns#"
   xmlns:rdf="http://www.w3.org/1999/02/22-rdf-syntax-ns#"
   xmlns:svg="http://www.w3.org/2000/svg"
   xmlns="http://www.w3.org/2000/svg"
   id="svg8"
   version="1.1"
   viewBox="0 0 210 297"
   height="297mm"
   width="210mm">
  <defs
     id="defs2" />
  <metadata
     id="metadata5">
    <rdf:RDF>
      <cc:Work
         rdf:about="">
        <dc:format>image/svg+xml</dc:format>
        <dc:type
           rdf:resource="http://purl.org/dc/dcmitype/StillImage" />
        <dc:title></dc:title>
      </cc:Work>
    </rdf:RDF>
  </metadata>
  <g
     id="layer1">
    <path
       id="path73"
       d="m 125.05065,71.444096 -0.021,-0.440546 -0.49341,-0.260178 c -0.27137,-0.143096 -0.76673,-0.358306 -1.10078,-0.478246 -0.72689,-0.260982 -1.18812,-0.530182 -1.94483,-1.135109 -0.31136,-0.248903 -0.82293,-0.637254 -1.13683,-0.863006 -1.11575,-0.802423 -1.66903,-1.603315 -1.66687,-2.412834 0.002,-0.64772 0.32164,-1.237074 1.12628,-2.074937 0.35402,-0.368646 0.84155,-0.915587 1.08339,-1.215426 0.48209,-0.59773 1.55623,-1.596581 1.91819,-1.783758 0.15904,-0.08224 0.33482,-0.108448 0.57352,-0.08552 0.29487,0.02833 0.48771,0.131697 1.34521,0.721016 0.55056,0.37837 1.24317,0.886742 1.53917,1.129715 0.78611,0.645316 1.39688,0.845031 3.24879,1.062333 0.9839,0.115449 1.48807,0.09868 2.52165,-0.08389 1.19124,-0.210404 1.79941,-0.457311 2.365,-0.960155 0.19182,-0.170533 0.58666,-0.485399 0.87742,-0.699702 0.47324,-0.348806 0.88798,-0.749966 1.30401,-1.261337 0.0776,-0.0953 0.28757,-0.347464 0.46674,-0.560356 0.51254,-0.609003 0.69294,-1.059329 0.97392,-2.431205 0.35427,-1.729641 0.34686,-2.75332 -0.0336,-4.652161 -0.31729,-1.583187 -0.4728,-1.914645 -1.37821,-2.937539 -1.47017,-1.660914 -1.55198,-1.721613 -3.16543,-2.348613 -0.56214,-0.21845 -1.27582,-0.497641 -1.58596,-0.620421 -0.55213,-0.21858 -0.58816,-0.223264 -1.72694,-0.224529 l -1.16304,-0.0013 -0.70487,0.310577 c -0.38768,0.170818 -1.02207,0.441319 -1.40974,0.601113 -0.89236,0.367806 -1.23261,0.602505 -2.14987,1.482948 -1.01666,0.975852 -1.38996,1.136142 -2.13886,0.91843 -0.56814,-0.165165 -1.28761,-0.596564 -1.70395,-1.021714 -0.19315,-0.197226 -0.62055,-0.58729 -0.94978,-0.866806 -0.32924,-0.279518 -0.66229,-0.567786 -0.74012,-0.640595 -0.2332,-0.218146 -1.04073,-0.721291 -1.29745,-0.808391 -0.13178,-0.04471 -0.39499,-0.0813 -0.58489,-0.0813 -0.28288,0 -0.37654,0.03372 -0.5182,0.186596 -0.2695,0.290783 -0.31622,0.612521 -0.29667,2.043279 0.0156,1.141719 10e-4,1.359633 -0.10126,1.541195 -0.21182,0.375229 -0.56444,0.68361 -1.03855,0.908268 l -0.46328,0.219529 h -2.60803 c -2.54904,0 -2.61455,-0.0035 -2.89666,-0.154446 -0.15874,-0.08494 -0.39267,-0.272954 -0.51984,-0.417798 -0.4776,-0.543945 -0.44975,-0.06575 -0.4366,-7.498553 0.013,-7.350041 -0.0525,-10.658974 -0.22306,-11.259982 -0.11257,-0.39681 -0.68367,-1.510396 -1.08525,-2.11612 -0.50556,-0.762574 -1.1029,-1.061277 -2.49645,-1.248357 -0.83795,-0.112491 -0.94094,-0.112496 -1.72694,-6.9e-5 -1.40382,0.200782 -2.12185,0.525269 -2.61235,1.180558 -1.134579,1.515753 -1.291808,1.7702 -1.490887,2.412719 -0.09413,0.303817 -0.112702,1.188699 -0.134609,6.414342 -0.01398,3.334047 0.0079,7.191256 0.04871,8.571572 0.08348,2.826761 0.06405,3.007604 -0.371355,3.455928 -0.382699,0.394047 -0.538074,0.413505 -3.302089,0.413505 -2.789344,0 -2.904683,-0.01577 -3.434847,-0.469566 -0.16093,-0.13775 -0.359556,-0.381694 -0.441383,-0.542099 -0.147045,-0.288233 -0.148933,-0.352323 -0.161143,-5.472814 -0.0092,-3.87924 -0.03469,-5.27858 -0.101243,-5.568846 -0.06713,-0.292818 -0.08641,-1.483153 -0.07876,-4.86457 0.0087,-3.848452 -0.0071,-4.625177 -0.11259,-5.533252 -0.0971,-0.835841 -0.122692,-1.647868 -0.122599,-3.889875 v -2.833515 l 0.25985,-0.525772 c 0.304154,-0.615421 0.819268,-1.12822 1.436792,-1.430348 l 0.402842,-0.197092 2.425539,0.0086 2.425531,0.0086 0.290668,0.202207 c 0.159866,0.111215 0.444649,0.432514 0.632848,0.713999 0.484642,0.724874 0.730405,0.895746 1.286034,0.894142 0.418931,-0.0013 0.469481,-0.02099 1.034341,-0.404685 0.63068,-0.428404 0.89639,-0.543258 1.74196,-0.752969 2.05064,-0.508586 4.49181,-0.494452 6.79236,0.03932 0.94137,0.218421 0.99592,0.241684 1.73754,0.741086 0.32953,0.221901 0.89737,0.579357 1.26187,0.79435 0.80937,0.477388 1.06627,0.703124 1.57341,1.382525 0.21664,0.290249 0.55708,0.71804 0.75651,0.950647 0.48254,0.56281 0.73631,1.102519 0.97767,2.079376 0.40281,1.630201 0.83769,1.977434 1.5653,1.249831 0.38962,-0.389633 1.30883,-1.774907 1.75806,-2.649447 0.31055,-0.604585 0.49725,-0.851013 1.28486,-1.695947 0.57477,-0.616602 1.12021,-1.125938 1.44957,-1.353627 0.29044,-0.200776 0.72219,-0.539504 0.95945,-0.75273 0.46939,-0.421837 0.98217,-0.685078 2.01735,-1.035626 0.3683,-0.124717 1.0344,-0.388666 1.48023,-0.586552 0.90779,-0.402924 1.38166,-0.53856 2.25374,-0.645085 1.3542,-0.16541 3.24431,-0.02334 5.25316,0.394892 1.96745,0.409604 1.90072,0.405046 6.09714,0.416416 l 3.91204,0.0106 0.44937,0.227668 c 0.24717,0.125217 0.60401,0.38229 0.79299,0.571275 0.31923,0.31923 0.34361,0.368535 0.34361,0.694911 0,0.224567 -0.0777,0.550004 -0.21533,0.902071 -0.11845,0.302922 -0.30917,0.978976 -0.42385,1.502344 -0.25109,1.146016 -0.51662,1.717167 -1.1633,2.502299 -0.25545,0.310143 -0.56389,0.770074 -0.68541,1.022064 -0.19635,0.407134 -0.22124,0.528834 -0.22342,1.092555 -0.001,0.34891 0.0525,0.935718 0.1197,1.304015 0.20601,1.129213 0.28882,2.284989 0.29292,4.088261 0.005,2.290048 -0.14479,3.039048 -0.8135,4.061711 -0.46464,0.710565 -0.80719,1.377482 -0.93686,1.823977 -0.42625,1.467758 -0.21615,2.407594 0.83606,3.739872 0.35068,0.444006 0.67433,0.964793 0.95244,1.53254 0.2317,0.472989 0.52642,1.018578 0.65492,1.212417 0.45572,0.687409 0.62829,1.031878 0.97169,1.939601 0.19111,0.505113 0.44059,1.053761 0.55443,1.219216 0.40444,0.587839 0.97473,0.696721 1.19895,0.22891 0.44905,-0.936922 0.54928,-1.815929 0.40069,-3.514271 -0.0947,-1.081827 -0.1172,-2.97563 -0.14368,-12.067754 -0.0341,-11.701342 -0.008,-10.94904 -0.42147,-12.153781 -0.22692,-0.661205 -0.22493,-0.77613 0.0311,-1.788765 0.30853,-1.220498 0.3673,-2.083361 0.3108,-4.563472 -0.0552,-2.4211 -0.0225,-2.663934 0.41404,-3.078148 0.63528,-0.60278 1.01283,-0.657678 4.20898,-0.612029 2.84756,0.04068 3.06544,0.06778 3.42363,0.425964 0.40914,0.409148 0.41306,0.434744 0.44596,2.914883 0.0428,3.221128 0.0465,11.312736 0.006,14.414649 -0.0317,2.468228 -0.025,2.657841 0.12507,3.537277 0.19869,1.164156 0.20302,2.155957 0.016,3.652426 -0.20139,1.611036 -0.23862,3.050307 -0.14859,5.744713 0.11225,3.359212 0.11887,7.427473 0.0127,7.815936 -0.12335,0.451373 -0.40619,0.836161 -0.77326,1.051952 l -0.32262,0.18972 -2.43891,0.02097 -2.43891,0.02097 -0.48632,-0.185224 c -1.24907,-0.475735 -1.82335,-0.575413 -2.06343,-0.35814 -0.25368,0.229577 -0.28858,0.622157 -0.27643,3.109442 0.0163,3.33181 -0.10861,4.176227 -0.8907,6.022761 -0.20615,0.486746 -0.49419,1.249765 -0.64009,1.695598 -0.33296,1.01747 -0.4256,1.20018 -1.01241,1.996833 -0.26189,0.355541 -0.63142,0.900192 -0.82116,1.210338 -0.18975,0.310142 -0.66058,0.896949 -1.0463,1.304014 -0.38571,0.407064 -0.86072,0.909777 -1.05555,1.117141 -0.19483,0.207362 -0.62702,0.560441 -0.96042,0.784616 -0.33339,0.224178 -0.84295,0.594904 -1.13235,0.823839 -0.75726,0.599053 -0.93153,0.692003 -1.95447,1.042383 -0.50587,0.173277 -1.08929,0.406465 -1.29646,0.518199 l -0.37668,0.203153 -0.021,0.433849 -0.021,0.433852 h -4.96225 -4.96263 z m -7.22536,-27.684444 c 1.1092,-0.415004 1.59573,-1.52657 1.28428,-2.934134 -0.25151,-1.13667 -0.68674,-1.800596 -1.4454,-2.204964 -0.5781,-0.308117 -0.76268,-0.279587 -0.97624,0.150889 -0.14266,0.287572 -0.17379,0.494382 -0.22812,1.515476 -0.0656,1.232851 -0.0273,2.617377 0.0847,3.064214 0.13244,0.528278 0.57953,0.670886 1.28077,0.408519 z m 12.92405,-5.221578 c 1.2275,-0.37356 2.54217,-1.212425 3.14265,-2.005274 0.31696,-0.418517 0.74917,-1.380203 1.01259,-2.253126 0.30547,-1.012248 0.27656,-1.591576 -0.13835,-2.773096 -0.57881,-1.64824 -0.65079,-1.748187 -1.96961,-2.734874 -1.12365,-0.840662 -1.36981,-0.971832 -2.02266,-1.077748 -1.02774,-0.166739 -1.93776,-0.06605 -2.60761,0.288508 -0.53433,0.282832 -1.5903,1.046948 -1.9772,1.430736 -0.2844,0.282109 -0.91452,1.255425 -1.38912,2.145707 -0.34673,0.650407 -0.44804,1.439278 -0.2957,2.302522 0.10054,0.569648 0.22521,0.869877 0.62341,1.50118 0.18672,0.29605 0.48867,0.781717 0.67099,1.079256 0.54943,0.896665 0.94174,1.179457 2.68481,1.935307 0.62647,0.271651 0.76482,0.305784 1.24373,0.306807 0.34785,7.99e-4 0.71013,-0.05098 1.02207,-0.145905 z M 18.695323,52.666753 c -0.310805,-0.193005 -0.472798,-0.521713 -0.770337,-1.563145 -0.203752,-0.713163 -0.420922,-1.271632 -0.740072,-1.903157 -0.248434,-0.491592 -0.52084,-1.14756 -0.605347,-1.457705 -0.351076,-1.288486 -0.517922,-1.728869 -0.947485,-2.50085 -0.494065,-0.8879 -0.532939,-0.987092 -0.953626,-2.43326 -0.264458,-0.909121 -0.40112,-1.218174 -1.122086,-2.537541 -0.177218,-0.324313 -0.327763,-0.769487 -0.560159,-1.656452 -0.134787,-0.514422 -0.333408,-1.042399 -0.543596,-1.44499 C 11.692377,35.713515 11.574471,35.446416 11.404982,34.796459 11.127088,33.730789 10.921301,33.179172 10.55055,32.506122 10.027202,31.556056 9.8326115,31.078956 9.5995359,30.174373 9.395474,29.382412 9.1906324,28.907925 8.4961851,27.618627 8.3395748,27.327865 8.1435136,26.836219 8.0604951,26.526074 7.741508,25.334389 7.4685251,24.598704 7.1058441,23.953289 6.6381234,23.120946 6.4279647,22.591816 6.1539825,21.556719 5.9511168,20.790304 5.8137487,20.472037 5.1043832,19.12491 4.9343637,18.802033 4.6908981,18.154287 4.5347689,17.609433 4.1572252,16.291899 4.0193514,15.950901 3.5750748,15.235911 2.9153697,14.174217 2.811009,13.911583 2.8076605,13.304659 c -0.00236,-0.454778 0.023123,-0.57276 0.1732725,-0.797798 0.096924,-0.145254 0.3021444,-0.329572 0.4560536,-0.409598 0.2700428,-0.140411 0.3752027,-0.145035 3.0053269,-0.132184 1.4990196,0.0073 2.9784277,0.03881 3.2875674,0.06997 0.9990891,0.10072 1.4213071,0.42667 1.8540441,1.431319 0.104827,0.243361 0.378817,0.759669 0.60887,1.147349 0.465946,0.7852 0.632874,1.181504 0.893281,2.120712 0.209498,0.755595 0.393613,1.168369 0.924765,2.073282 0.249538,0.425132 0.4714,0.926993 0.607636,1.374501 0.40069,1.316187 0.578027,1.749223 1.008268,2.46205 0.408469,0.676753 0.535415,0.995697 1.005829,2.527089 0.117337,0.381978 0.360537,0.908167 0.635263,1.374452 0.460065,0.780859 0.621341,1.20015 0.832883,2.165369 0.393204,1.794118 1.222928,2.006654 2.290574,0.586738 0.542541,-0.721557 0.916879,-1.443996 1.230336,-2.374449 0.267967,-0.795416 0.430287,-1.128776 0.843543,-1.732396 0.380746,-0.556137 0.609556,-1.038741 0.854205,-1.801682 0.234399,-0.730973 0.374554,-1.019142 0.805633,-1.656452 0.45269,-0.669258 0.583088,-0.939181 0.887857,-1.837844 0.308349,-0.90922 0.370097,-1.038365 0.806376,-1.686518 0.446384,-0.663168 0.652195,-1.084667 0.875398,-1.7928 0.300504,-0.953372 0.641911,-1.602048 1.066817,-2.026954 0.600478,-0.600477 1.177286,-0.749196 1.655594,-0.426866 0.301747,0.203347 0.453304,0.46784 0.750108,1.309057 0.25177,0.713586 0.543119,1.267205 1.008056,1.915496 0.152916,0.213223 0.409678,0.720732 0.57058,1.127797 0.326247,0.825373 0.598642,1.342566 0.985329,1.870832 0.32729,0.447128 0.546225,0.883772 0.846753,1.688776 0.156717,0.419788 0.429032,0.920761 0.805007,1.480957 0.312495,0.465613 0.609892,0.957262 0.660882,1.092553 0.05099,0.13529 0.140126,0.372857 0.198078,0.527931 0.180595,0.483231 0.499462,1.103046 0.902702,1.754673 0.213358,0.344784 0.50696,0.94216 0.652454,1.327502 0.412803,1.093328 0.826794,1.478152 1.384076,1.286567 0.345164,-0.118662 0.501094,-0.262921 0.830199,-0.768075 0.577038,-0.885718 1.106059,-2.137705 1.503522,-3.558252 0.19316,-0.690366 0.437155,-1.230485 0.841188,-1.86209 0.318976,-0.498639 0.410852,-0.732027 0.740584,-1.881252 0.279303,-0.973468 0.456352,-1.386769 1.026489,-2.396223 0.164222,-0.290762 0.399615,-0.861707 0.523101,-1.268772 0.548823,-1.809199 0.541142,-1.791022 1.229747,-2.910138 0.24365,-0.395977 0.535826,-0.906259 0.649281,-1.133961 0.39169,-0.786116 0.892844,-1.19192 1.721759,-1.39418 0.474471,-0.115776 2.085652,-0.197592 3.997933,-0.203019 1.886732,-0.0053 1.934345,-0.0018 2.222954,0.157218 0.171257,0.09447 0.363717,0.280832 0.458982,0.444439 0.143836,0.247031 0.160831,0.353953 0.137887,0.867685 -0.02608,0.583835 -0.02875,0.591035 -0.745323,2.008889 -0.749125,1.482252 -0.742622,1.463236 -1.209567,3.537568 -0.190168,0.844792 -0.271755,1.017763 -0.703783,1.492064 -0.495101,0.543546 -0.633468,0.866164 -0.992551,2.31425 -0.245487,0.989985 -0.246944,0.994106 -0.77146,2.185107 -0.227707,0.517045 -0.502114,1.300263 -0.629743,1.797424 -0.320657,1.249081 -0.535496,1.846743 -0.924837,2.572786 -0.438362,0.817464 -0.630541,1.339428 -0.908331,2.467056 -0.183952,0.746721 -0.328929,1.125089 -0.783244,2.044129 -0.4702,0.951185 -0.607603,1.315449 -0.877413,2.32608 -0.376538,1.410397 -0.368588,1.389446 -0.922718,2.431877 -0.256335,0.482218 -0.496204,1.053231 -0.592175,1.409682 -0.494482,1.836582 -0.595773,2.126293 -1.096685,3.136682 -0.42884,0.865024 -0.573815,1.249598 -0.79715,2.114619 -0.3267,1.265361 -0.447591,1.590683 -0.870669,2.343008 -0.403223,0.717023 -0.549223,1.110218 -0.79199,2.132937 -0.403932,1.701672 -0.561175,2.076746 -0.976902,2.330237 -0.438272,0.267237 -1.090414,0.128217 -1.556866,-0.331885 -0.355549,-0.350705 -0.603575,-0.814525 -0.823594,-1.540145 -0.330679,-1.090584 -0.563856,-1.648225 -0.913669,-2.185033 -0.433955,-0.665934 -0.633447,-1.106717 -0.977562,-2.159948 -0.195368,-0.597964 -0.410338,-1.084864 -0.653537,-1.480233 -0.576503,-0.937231 -0.748106,-1.303148 -1.018089,-2.170956 -0.287495,-0.924097 -0.381058,-1.12763 -0.923679,-2.009329 -0.286981,-0.466308 -0.474998,-0.89818 -0.721503,-1.657277 -0.359725,-1.107754 -0.437547,-1.280653 -0.981884,-2.181447 -0.196946,-0.325919 -0.408999,-0.769987 -0.471229,-0.986823 -0.392844,-1.368842 -0.530721,-1.748 -0.702445,-1.931713 -0.546681,-0.584846 -1.097708,-0.356108 -1.83298,0.760903 -0.535868,0.814076 -0.984427,1.789579 -1.232204,2.679722 -0.208278,0.748254 -0.31007,0.968132 -1.009129,2.179782 -0.177249,0.307217 -0.38856,0.783007 -0.469577,1.05731 -0.387278,1.311191 -0.588747,1.789711 -1.078057,2.560565 -0.383114,0.603551 -0.47546,0.825299 -0.829229,1.991189 -0.28197,0.929273 -0.439926,1.278793 -1.037151,2.294984 -0.167674,0.285305 -0.442538,0.952132 -0.644327,1.563155 -0.25166,0.762036 -0.546377,1.443579 -1.034548,2.392419 -0.37545,0.729752 -0.74914,1.401206 -0.830424,1.492115 -0.317088,0.354641 -0.709332,0.448617 -1.033157,0.247529 z M 170.95213,52.072909 c -0.40706,-0.0297 -1.08903,-0.122177 -1.51547,-0.205503 -0.42646,-0.08332 -1.20357,-0.227739 -1.72694,-0.320921 -1.60049,-0.284958 -2.19994,-0.489245 -2.90313,-0.989359 -0.1817,-0.129218 -0.73679,-0.445134 -1.23354,-0.702036 -0.97764,-0.505608 -1.22771,-0.673663 -1.71378,-1.15176 -0.17446,-0.171594 -0.57217,-0.52706 -0.88381,-0.789926 -0.3418,-0.288304 -0.73296,-0.710639 -0.98582,-1.064414 -0.23057,-0.322562 -0.58559,-0.784448 -0.78894,-1.026413 -0.42846,-0.509809 -0.68391,-0.989826 -1.06671,-2.004417 -0.15099,-0.400167 -0.43715,-1.047744 -0.63596,-1.439061 -0.71618,-1.409806 -0.87244,-2.150837 -1.24711,-5.914318 -0.14542,-1.460654 -0.1127,-2.242398 0.17418,-4.161278 0.29722,-1.988128 0.41974,-2.412652 1.09779,-3.803785 0.32123,-0.659055 0.68268,-1.436391 0.80321,-1.72741 0.25373,-0.612644 0.42523,-0.869155 1.37404,-2.055212 0.90118,-1.126517 1.67165,-1.864359 2.54681,-2.438957 0.38768,-0.254536 0.8952,-0.611811 1.1278,-0.793942 0.64976,-0.508759 1.1192,-0.707937 2.32608,-0.986905 0.34891,-0.08065 0.93572,-0.243457 1.30401,-0.361788 1.52347,-0.489481 2.69696,-0.693859 3.97805,-0.692833 1.23434,10e-4 2.9211,0.281781 4.09101,0.681018 0.27233,0.09293 0.84406,0.248445 1.27051,0.345577 1.35013,0.307521 2.10194,0.596353 2.56377,0.98495 0.12239,0.102989 0.69747,0.461588 1.27795,0.796885 0.99743,0.576135 1.11317,0.666652 2.10657,1.647252 0.802,0.791674 1.12381,1.163739 1.35774,1.569717 0.16863,0.292655 0.46009,0.777309 0.64769,1.077002 0.59547,0.951268 0.73462,1.440435 0.51971,1.826967 -0.0472,0.08485 -0.51924,0.59728 -1.04905,1.138739 -0.78441,0.801679 -1.08681,1.058194 -1.62858,1.381497 -0.36592,0.218365 -0.94738,0.634671 -1.29215,0.925128 -0.34477,0.290457 -0.83936,0.654499 -1.0991,0.808982 -0.25974,0.154482 -0.73567,0.510372 -1.05763,0.790866 -0.32197,0.280493 -0.839,0.665901 -1.14896,0.856464 -0.30997,0.190559 -0.86648,0.591794 -1.23668,0.891631 -0.37021,0.299839 -0.94378,0.70504 -1.27463,0.900451 -0.33083,0.19541 -0.81712,0.550682 -1.08064,0.789492 -0.26352,0.238811 -0.78578,0.632568 -1.1606,0.875015 -0.37481,0.242446 -0.88533,0.622715 -1.1345,0.845038 -0.24916,0.222327 -0.74369,0.577681 -1.09894,0.789678 -0.35524,0.211998 -0.91295,0.601465 -1.23932,0.865482 -0.32636,0.264019 -0.87173,0.663344 -1.21192,0.887388 -0.80921,0.532932 -0.99651,0.805367 -0.9893,1.438959 0.008,0.753865 0.40496,1.32545 1.21477,1.751746 0.79643,0.419257 2.37312,0.742777 3.60834,0.740395 0.83095,-0.0016 2.88302,-0.267573 3.70059,-0.479638 0.92406,-0.23969 1.68931,-0.762119 3.22129,-2.199179 0.98922,-0.927916 1.50511,-1.105933 2.20817,-0.761957 0.47477,0.232281 0.77462,0.64258 1.08386,1.483083 0.3216,0.874084 0.41198,1.065147 0.78665,1.662965 0.48539,0.77452 0.59424,1.072482 0.59035,1.615981 -0.005,0.650784 -0.1804,0.962634 -1.12293,1.992671 -0.78808,0.861238 -0.91251,0.959103 -1.90377,1.497322 -0.27138,0.147346 -0.71544,0.41793 -0.98683,0.601291 -0.9957,0.672774 -1.40123,0.796665 -4.15874,1.270476 -2.4714,0.424649 -2.85303,0.454181 -4.40546,0.340904 z m -5.93756,-16.753546 c 0.19861,-0.106611 0.58337,-0.352437 0.85506,-0.546276 0.27168,-0.193842 0.67789,-0.456811 0.9027,-0.584381 0.2248,-0.12757 0.64663,-0.439678 0.93739,-0.693576 0.29076,-0.253898 0.83163,-0.648321 1.20195,-0.876497 0.37031,-0.228174 0.90953,-0.620526 1.19828,-0.871887 0.28875,-0.251365 0.73099,-0.577268 0.98276,-0.72423 0.62699,-0.365979 2.09117,-1.463341 2.41301,-1.808482 0.47447,-0.508831 0.52834,-1.102994 0.1438,-1.586107 -0.28571,-0.358937 -0.96687,-0.801501 -1.65463,-1.075039 -0.49406,-0.196495 -0.69376,-0.236459 -1.28947,-0.258046 l -0.70486,-0.02554 -1.44326,0.718179 -1.44326,0.718176 -0.71198,0.714223 c -0.879,0.881787 -1.14979,1.221047 -1.44215,1.806779 -0.12577,0.25199 -0.36669,0.672236 -0.53539,0.933876 -0.66393,1.029763 -0.81641,1.551204 -0.82962,2.837194 -0.007,0.712243 0.0121,0.88028 0.12332,1.063857 0.29044,0.479659 0.72286,0.565642 1.29635,0.257777 z M 74.34931,51.57861 c -1.187146,-0.139615 -2.222154,-0.39253 -2.640282,-0.645184 -0.137331,-0.08298 -0.424152,-0.283011 -0.637374,-0.444506 -0.213226,-0.161496 -0.727381,-0.493374 -1.142574,-0.737509 -0.9336,-0.548959 -1.69705,-1.289885 -2.97421,-2.886455 -0.702733,-0.87848 -0.803731,-1.113889 -1.301915,-3.034511 -0.427248,-1.647157 -0.52568,-2.253282 -0.520781,-3.206916 0.0048,-0.932717 0.07065,-1.280419 0.614115,-3.242291 0.467264,-1.686803 0.57338,-1.919637 1.236889,-2.713884 0.178124,-0.213223 0.501954,-0.660639 0.71962,-0.994261 0.293271,-0.449498 0.507096,-0.686796 0.8257,-0.916333 0.23647,-0.170366 0.707171,-0.517467 1.046005,-0.771336 0.835535,-0.626025 1.029598,-0.735576 1.60288,-0.904852 0.79743,-0.235457 2.93476,-0.573843 3.899831,-0.617429 0.989979,-0.04471 3.362947,0.07288 3.748042,0.185733 0.446021,0.130708 1.362568,0.167057 1.766845,0.07008 0.505135,-0.121181 1.046885,-0.648576 1.176485,-1.145312 0.200276,-0.767603 0.04769,-1.484945 -0.414079,-1.946717 -0.512471,-0.512466 -0.419032,-0.503406 -5.169609,-0.501205 -4.562845,0.0022 -4.639027,-0.0033 -5.269185,-0.37257 -0.337925,-0.198034 -0.548934,-0.529197 -0.548934,-0.861504 0,-0.104614 0.108026,-0.439481 0.240055,-0.744148 0.212541,-0.490453 0.393196,-1.137166 0.768659,-2.751645 0.217626,-0.935779 0.622581,-1.475133 1.3726,-1.828151 0.806039,-0.379374 0.51933,-0.365793 7.749127,-0.367139 l 6.712723,-0.0013 0.38049,0.186153 c 0.495363,0.24236 0.989628,0.777737 1.263328,1.368413 l 0.218942,0.472476 0.02337,1.515475 c 0.01401,0.908753 0.065,1.755346 0.127357,2.114619 0.05793,0.333802 0.104201,1.036178 0.104462,1.585965 0,0.542752 0.05085,1.494331 0.112441,2.114619 0.09842,0.991227 0.106233,2.113665 0.06451,9.269078 -0.03675,6.302128 -0.02775,8.284592 0.03981,8.775666 0.04801,0.348912 0.09024,0.967438 0.09385,1.3745 0.0058,0.657622 -0.01308,0.77871 -0.169663,1.086335 -0.368826,0.724634 -1.20572,1.281071 -2.191801,1.457292 -0.742514,0.132695 -3.152468,-0.01183 -4.178825,-0.250599 -1.007784,-0.234449 -1.624726,-0.228545 -3.149465,0.03014 -1.489213,0.252661 -3.124544,0.428313 -3.899228,0.418815 -0.314826,-0.0039 -1.079915,-0.0667 -1.700204,-0.139652 z m 4.075605,-7.077943 c 0.606,-0.157844 0.856285,-0.311077 1.68748,-1.033135 1.151472,-1.000276 1.359551,-1.405036 1.308448,-2.545225 -0.02574,-0.573807 -0.05735,-0.703833 -0.266046,-1.093909 -0.311195,-0.581636 -1.380291,-1.614666 -1.949934,-1.884148 -0.926097,-0.438115 -2.850316,-0.516711 -3.879373,-0.158455 -0.879548,0.306204 -1.963676,1.288392 -2.370762,2.147835 -0.208171,0.439475 -0.226623,0.53584 -0.226623,1.183312 0,0.624268 0.02256,0.753236 0.197329,1.127795 0.213463,0.45751 0.59835,0.888482 1.318147,1.475992 0.874902,0.714111 1.378462,0.873162 2.787061,0.88031 0.665843,0.0034 1.122022,-0.02946 1.394273,-0.100372 z m -24.798869,6.808166 c -0.493716,-0.12464 -0.931795,-0.495914 -1.047265,-0.88757 -0.0387,-0.131235 -0.08089,-5.589937 -0.166748,-21.569108 -0.01915,-3.566658 -0.03932,-6.787623 -0.0448,-7.157704 -0.0079,-0.536209 0.01532,-0.711402 0.114425,-0.862562 0.344469,-0.525327 1.302844,-0.694891 4.155303,-0.735195 2.486365,-0.03514 2.554211,-0.02382 3.896839,0.650431 1.096208,0.550491 1.207375,0.560643 2.232632,0.203918 0.400311,-0.139282 0.934013,-0.315801 1.186004,-0.392263 0.251993,-0.07646 0.865702,-0.332561 1.363801,-0.569111 0.848504,-0.402958 0.937693,-0.430087 1.413865,-0.430087 0.681905,0 1.139555,0.240074 1.569358,0.823256 0.429043,0.58215 0.511451,0.927933 0.590543,2.477898 0.03759,0.736591 0.08795,1.600461 0.111923,1.919709 0.05218,0.694885 -0.0042,0.867197 -0.483476,1.47758 -0.590348,0.751847 -1.180107,1.105266 -2.267491,1.35881 -0.644781,0.150344 -1.234307,0.408675 -1.763514,0.772781 -0.172123,0.118425 -0.592879,0.357678 -0.935014,0.531677 -1.027221,0.522412 -2.075712,1.528419 -2.480792,2.380265 -0.46167,0.97086 -0.74881,2.947368 -0.685512,4.718669 0.08167,2.285358 0.152522,14.046433 0.08628,14.321269 -0.08437,0.35005 -0.433013,0.696839 -0.866077,0.861474 -0.307219,0.116794 -0.612297,0.131223 -3.055062,0.144498 -1.492568,0.0081 -2.808919,-0.0092 -2.925223,-0.03863 z M 188.5643,51.234058 c -1.02432,-0.135043 -1.53597,-0.719903 -1.77814,-2.032562 -0.0846,-0.458631 -0.0975,-2.654645 -0.0832,-14.216948 l 0.0169,-13.674533 0.14755,-0.408743 c 0.22718,-0.629316 0.55705,-1.03752 1.03673,-1.282952 l 0.41329,-0.211462 1.87282,-0.02397 c 2.99077,-0.03831 2.8599,-0.04363 3.19474,0.130012 0.1646,0.08536 0.47515,0.322424 0.6901,0.526802 0.8115,0.77158 1.27954,0.86663 2.63906,0.535947 0.7557,-0.183811 1.07111,-0.304982 1.8315,-0.703601 1.14055,-0.597914 1.78309,-0.802255 2.53978,-0.807695 0.67599,-0.0049 1.06506,0.162238 1.33797,0.574644 0.26652,0.40274 0.31013,0.808667 0.32813,3.054468 0.0176,2.205442 -0.0157,2.538397 -0.32107,3.205426 -0.40902,0.893452 -1.06348,1.331307 -2.57855,1.725177 -0.69684,0.181152 -0.81893,0.236824 -1.62122,0.739236 -0.32952,0.206357 -0.80532,0.462269 -1.0573,0.568695 -1.01265,0.427665 -1.42132,0.817061 -2.16564,2.063459 -0.66766,1.11804 -0.67953,1.261376 -0.62731,7.579006 0.0237,2.871554 0.063,6.338077 0.0872,7.703384 0.0566,3.190294 -0.0363,3.893373 -0.59334,4.486923 -0.38535,0.410611 -0.49934,0.429481 -2.62187,0.434041 -1.06613,0.0024 -2.0177,0.02294 -2.11463,0.0459 -0.0969,0.02296 -0.35501,0.01817 -0.57354,-0.01066 z M 158.43465,17.163892 c -0.7311,-0.277278 -1.24689,-0.752003 -1.55988,-1.435676 -0.15135,-0.330577 -0.17168,-0.461242 -0.14933,-0.960036 0.0307,-0.685424 0.18867,-1.0483 0.71182,-1.635266 0.73584,-0.825593 1.77285,-1.139675 2.73984,-0.829837 0.53307,0.170802 1.18157,0.814395 1.40495,1.394311 0.23465,0.609157 0.23776,1.728854 0.006,2.307709 -0.19197,0.480322 -0.56792,0.882383 -1.04156,1.113892 -0.51052,0.249545 -1.5163,0.270924 -2.11225,0.0449 z"
       style="fill:#cacaca;stroke-width:0.07048728" />
  </g>
</svg>
