<?xml version="1.0" encoding="UTF-8" standalone="no"?>
<svg
   xmlns:dc="http://purl.org/dc/elements/1.1/"
   xmlns:cc="http://creativecommons.org/ns#"
   xmlns:rdf="http://www.w3.org/1999/02/22-rdf-syntax-ns#"
   xmlns:svg="http://www.w3.org/2000/svg"
   xmlns="http://www.w3.org/2000/svg"
   id="svg8"
   version="1.1"
   viewBox="0 0 210 297"
   height="297mm"
   width="210mm">
  <defs
     id="defs2" />
  <metadata
     id="metadata5">
    <rdf:RDF>
      <cc:Work
         rdf:about="">
        <dc:format>image/svg+xml</dc:format>
        <dc:type
           rdf:resource="http://purl.org/dc/dcmitype/StillImage" />
        <dc:title></dc:title>
      </cc:Work>
    </rdf:RDF>
  </metadata>
  <g
     id="layer1">
    <path
       id="path86"
       d="m 65.690059,58.521157 c -0.01622,-0.01474 -0.77808,-0.06303 -1.69301,-0.107304 -3.819317,-0.184827 -4.918774,-0.379873 -6.724831,-1.192986 -0.607022,-0.273293 -1.567782,-0.600391 -2.441901,-0.831368 -0.862217,-0.22783 -1.527806,-0.488438 -1.87835,-0.735466 -0.144654,-0.101933 -0.477625,-0.338047 -0.739935,-0.524689 -0.262315,-0.186641 -0.837174,-0.546195 -1.277471,-0.799008 -0.719479,-0.413114 -0.923101,-0.580339 -2.011022,-1.651515 -1.042817,-1.026768 -1.301674,-1.327912 -1.868801,-2.174077 -0.362072,-0.54022 -0.791941,-1.17806 -0.955264,-1.417426 -0.3115,-0.456543 -0.60158,-1.094151 -0.929166,-2.042362 -0.107606,-0.311466 -0.438708,-1.112068 -0.735784,-1.779113 -1.043855,-2.343853 -1.26877,-3.871981 -1.264488,-8.591286 0.0042,-4.568866 0.209506,-5.846531 1.325991,-8.24985 0.127397,-0.274231 0.367499,-0.895393 0.533564,-1.380362 0.384436,-1.122704 0.623029,-1.640586 0.963321,-2.090954 0.149499,-0.197857 0.419044,-0.554178 0.598986,-0.791825 0.179945,-0.23765 0.482561,-0.712856 0.672483,-1.056016 0.299376,-0.540926 0.51953,-0.798665 1.654886,-1.937431 1.251258,-1.255014 1.348973,-1.335982 2.194421,-1.818319 0.486665,-0.277647 1.123754,-0.686802 1.415752,-0.909229 0.652784,-0.497255 1.160342,-0.740442 2.123631,-1.0175 0.408799,-0.117575 0.918472,-0.265739 1.132605,-0.329248 0.214132,-0.06351 0.821543,-0.300062 1.349798,-0.52567 1.597793,-0.682389 2.411283,-0.895609 4.171643,-1.093416 2.158121,-0.242499 6.937736,-0.204346 8.740211,0.06977 1.12375,0.170893 1.555649,0.302761 2.805362,0.856516 0.796101,0.352757 1.515366,0.611581 2.229813,0.802396 1.786513,0.477138 2.195704,0.653936 2.91138,1.25792 0.203606,0.171831 0.713279,0.506232 1.132603,0.74311 1.177623,0.665248 1.315503,0.775192 2.638279,2.103761 1.261677,1.267197 1.40197,1.445177 2.738403,3.474017 0.901012,1.367824 1.152002,1.858131 1.467597,2.866903 0.146163,0.467199 0.408736,1.279487 0.583497,1.805086 0.755219,2.271305 1.159552,3.960716 1.345609,5.62237 0.100516,0.897661 0.105758,1.189659 0.0349,1.941548 -0.144096,1.528974 -0.532898,2.095392 -1.615815,2.353998 -0.250261,0.05976 -3.744493,0.0879 -12.99301,0.104671 -13.81952,0.02504 -12.820759,-0.0074 -13.236121,0.429978 -0.463226,0.487773 -0.675568,1.552249 -0.482901,2.420804 0.24446,1.102057 1.064871,2.527306 2.226477,3.867924 1.29828,1.498351 2.125049,1.947588 3.968737,2.15647 1.67605,0.189892 5.203943,-0.09109 6.313716,-0.502853 0.722526,-0.268085 0.997571,-0.494271 2.180968,-1.793537 1.36905,-1.503101 1.696359,-1.771978 2.455657,-2.017281 0.453819,-0.146614 0.544003,-0.148876 5.020109,-0.125923 5.127735,0.02629 5.029134,0.01643 5.556233,0.556217 0.581281,0.59529 0.549095,1.417413 -0.0975,2.489958 -0.459746,0.762611 -0.628022,1.128211 -0.93765,2.03715 -0.338512,0.993745 -0.599273,1.483589 -1.136365,2.134667 -0.266143,0.322616 -0.706859,0.890933 -0.979386,1.262931 -0.615598,0.840282 -1.133028,1.335205 -1.953041,1.86806 -0.350398,0.227693 -0.990671,0.680379 -1.422838,1.005975 -0.852122,0.64199 -1.274094,0.844448 -2.341926,1.123648 -0.926475,0.242242 -1.919112,0.570184 -2.582499,0.853196 -1.092884,0.466244 -2.236898,0.782676 -3.42144,0.946362 -1.429949,0.1976 -6.632733,0.451824 -6.766122,0.330612 z m 3.651465,-26.615348 c 1.034417,-0.15548 1.497812,-0.440474 1.799357,-1.106632 0.271876,-0.600607 0.153473,-1.27485 -0.422309,-2.404893 -0.153915,-0.302067 -0.279841,-0.568935 -0.279841,-0.593041 0,-0.19139 -0.751888,-1.58339 -1.001598,-1.854292 -0.266655,-0.289285 -1.110114,-0.952365 -1.211441,-0.952365 -0.01981,0 -0.22283,-0.124083 -0.45113,-0.27574 -1.008148,-0.669693 -1.436826,-0.814618 -2.281088,-0.77118 -0.73466,0.03779 -1.081747,0.172853 -2.133514,0.830163 -1.12406,0.702492 -1.684458,1.301481 -2.322048,2.481963 -1.021707,1.891671 -1.095906,2.067184 -1.131131,2.675637 -0.02672,0.461749 -0.006,0.611809 0.127948,0.923014 0.214249,0.498033 0.598487,0.817815 1.153714,0.96017 0.64087,0.164318 0.582123,0.161893 4.188966,0.17285 2.479773,0.0075 3.489262,-0.01429 3.964115,-0.08565 z M 181.29229,58.017662 c -0.56454,-0.04836 -1.15385,-0.109572 -1.30958,-0.136018 -0.15573,-0.02643 -0.4902,-0.08159 -0.74327,-0.122539 -0.53142,-0.08599 -1.02432,-0.222927 -2.54836,-0.707989 -0.60346,-0.19207 -1.38389,-0.411827 -1.73429,-0.488352 -0.91618,-0.200088 -1.86164,-0.4855 -2.22982,-0.67312 -0.1752,-0.08928 -0.60945,-0.379791 -0.96501,-0.645576 -0.35556,-0.265789 -0.94485,-0.690197 -1.30956,-0.94313 -1.00513,-0.697066 -1.68204,-1.417998 -2.57655,-2.744123 -1.56423,-2.318958 -1.5766,-2.347621 -1.85752,-4.302109 -0.16696,-1.161563 -0.17502,-1.31683 -0.0893,-1.720464 0.12607,-0.594075 0.38583,-0.937271 0.89993,-1.188964 l 0.41203,-0.201721 2.8669,0.02349 c 6.07445,0.04979 6.53846,0.0604 6.8664,0.156938 0.80111,0.235833 1.18303,0.648288 1.5821,1.708536 0.40427,1.074018 0.71155,1.45741 1.65633,2.066555 0.99765,0.643231 1.94776,1.033884 2.9555,1.215184 1.46456,0.26349 3.66659,-0.06612 4.77272,-0.714404 0.82227,-0.481916 1.42232,-1.371661 1.42044,-2.106169 -0.002,-0.62272 -0.31957,-1.345298 -0.78975,-1.794734 -0.48381,-0.462446 -0.87354,-0.62678 -2.17329,-0.916388 -0.45284,-0.100896 -1.55599,-0.431131 -2.45146,-0.733851 -1.81549,-0.613737 -2.08852,-0.683647 -3.86522,-0.989713 -1.60047,-0.275711 -2.94784,-0.663099 -5.30179,-1.524343 -0.36986,-0.135326 -0.97509,-0.314611 -1.34496,-0.39842 -1.21077,-0.274343 -1.87176,-0.588394 -2.69203,-1.279039 -0.24664,-0.207663 -0.78398,-0.632402 -1.19411,-0.943868 -0.7588,-0.576275 -1.09934,-0.953267 -1.45356,-1.609109 -0.10894,-0.201717 -0.43953,-0.733966 -0.73465,-1.182779 -0.84139,-1.279597 -1.07149,-1.96928 -1.22947,-3.685143 -0.10024,-1.088481 -0.0336,-4.033476 0.10826,-4.791245 0.20244,-1.080652 0.34972,-1.451743 0.94443,-2.379557 0.17692,-0.275999 0.46549,-0.788685 0.64129,-1.139302 0.46643,-0.930278 0.71051,-1.249495 1.74433,-2.281298 0.86035,-0.858662 1.44199,-1.308922 2.18748,-1.693359 0.14774,-0.0762 0.56183,-0.357054 0.92024,-0.624145 0.855,-0.637194 1.4559,-0.911627 2.72639,-1.245148 0.57627,-0.15128 1.49195,-0.448767 2.03485,-0.661084 0.54289,-0.212319 1.14636,-0.436473 1.34102,-0.49812 2.10434,-0.66642 9.16479,-0.917085 12.19475,-0.432945 1.38775,0.22174 1.5985,0.287866 3.6617,1.148916 0.27253,0.113739 0.70593,0.259535 0.9631,0.323989 1.23582,0.309726 2.05335,0.677721 2.71127,1.220407 0.24903,0.205413 0.78514,0.596092 1.19137,0.868173 0.69869,0.467996 1.13517,0.861353 1.5811,1.424943 0.10783,0.136265 0.42645,0.486666 0.70807,0.778662 0.64775,0.671625 0.923,1.113123 1.30186,2.088238 0.16639,0.428267 0.45,1.065094 0.63026,1.415176 0.30495,0.592254 0.32773,0.673801 0.32773,1.172873 0,0.459453 -0.0264,0.576402 -0.1846,0.815605 -0.24069,0.364095 -0.76512,0.645241 -1.44689,0.775685 -0.75639,0.144722 -7.95416,0.151981 -8.50698,0.0086 -0.42548,-0.110365 -0.86709,-0.428269 -1.24286,-0.894679 -0.66115,-0.820659 -1.0912,-1.17138 -2.28069,-1.859954 -1.25504,-0.72651 -1.75372,-0.884989 -3.29164,-1.046059 -0.91781,-0.09613 -2.1128,-0.04683 -2.74266,0.113133 -0.85162,0.216289 -2.60019,1.238657 -3.0828,1.802469 -0.49009,0.572552 -0.50558,1.28213 -0.0427,1.954893 0.23404,0.340167 1.14577,1.057856 1.70179,1.339618 0.50513,0.255969 1.24731,0.432727 2.50288,0.596091 1.51104,0.196602 2.44178,0.41224 4.15782,0.963314 1.82994,0.587648 2.56652,0.773219 4.05356,1.021222 2.41816,0.403295 2.87041,0.53547 4.35344,1.272352 0.44773,0.222464 0.98927,0.461933 1.20339,0.53215 1.85959,0.609786 2.85418,1.477568 5.01569,4.376205 0.43708,0.586135 0.77402,1.680238 0.92993,3.019709 0.22473,1.930478 0.22367,3.624679 -0.003,5.521442 -0.23003,1.92124 -0.42083,2.498869 -1.1377,3.444328 -0.20201,0.266414 -0.57715,0.802937 -0.83365,1.192269 -0.35265,0.535277 -0.72533,0.960961 -1.52843,1.74586 -1.26602,1.237316 -1.24638,1.221542 -2.05309,1.650141 -0.35039,0.186168 -0.90924,0.537462 -1.24189,0.780657 -0.97382,0.711959 -1.50368,0.922517 -2.93458,1.166134 -0.98289,0.167337 -1.71968,0.349646 -2.61796,0.647769 -0.80496,0.267145 -2.11633,0.593884 -2.7619,0.688143 -1.29378,0.1889 -1.62725,0.226657 -2.58376,0.292556 -1.37463,0.0947 -4.88514,0.07563 -6.15852,-0.03346 z m -72.91134,-0.955858 c -2.68702,-0.03453 -4.0294,-0.0774 -4.24726,-0.135647 -0.77716,-0.20778 -1.25171,-0.66942 -1.75288,-1.70522 -0.17894,-0.369866 -0.54251,-1.015586 -0.80791,-1.434935 -0.53518,-0.84563 -0.72798,-1.264258 -1.12749,-2.44827 -0.28216,-0.836197 -0.42829,-1.126326 -0.985992,-1.957408 -0.416609,-0.620822 -0.69568,-1.219934 -0.982391,-2.10898 -0.301371,-0.934524 -0.484869,-1.332361 -0.904318,-1.960686 -0.598767,-0.896929 -0.725719,-1.157409 -1.093131,-2.242799 -0.364163,-1.075808 -0.571629,-1.500868 -1.106148,-2.26626 -0.386162,-0.552972 -0.727547,-1.291559 -0.97507,-2.109591 -0.230575,-0.762 -0.512449,-1.338435 -1.073084,-2.194421 -0.469623,-0.717033 -0.6108,-1.023636 -0.963339,-2.09217 -0.256602,-0.77774 -0.588074,-1.489137 -1.042033,-2.236375 -0.344846,-0.567624 -0.571835,-1.057888 -0.814513,-1.759196 -0.275451,-0.796021 -0.537953,-1.363511 -0.942343,-2.03722 -0.498076,-0.829772 -0.684543,-1.221135 -1.031976,-2.165866 -0.350614,-0.953356 -0.655765,-1.585704 -1.151477,-2.386102 -0.423556,-0.683891 -0.724962,-1.299379 -1.002389,-2.046913 -0.330897,-0.891642 -0.467198,-1.177219 -0.864203,-1.810691 -0.694341,-1.10791 -0.91712,-1.647472 -0.916332,-2.219361 0.0013,-1.055713 0.715407,-1.614468 1.910869,-1.495459 0.253067,0.0252 2.102341,0.06234 4.109495,0.08255 3.012736,0.03033 3.932724,0.01582 5.27368,-0.08332 0.893377,-0.06604 1.895752,-0.134679 2.227508,-0.152538 1.159029,-0.06238 1.808609,0.24365 2.888767,1.360963 0.97824,1.011913 1.10006,1.246817 1.76183,3.39762 0.13651,0.443667 0.35819,0.905727 0.7302,1.521935 0.67175,1.112759 0.79821,1.385678 1.05793,2.283256 0.34203,1.182044 0.70664,2.000587 1.17438,2.636489 0.2667,0.362565 0.50228,0.892319 0.77215,1.736345 0.4298,1.344185 0.72513,2.060138 1.06498,2.581766 0.4713,0.72341 0.8314,1.515309 1.12658,2.477509 0.3621,1.180352 0.50268,1.519439 0.98314,2.371388 0.69048,1.224333 1.10976,1.762528 1.54915,1.988538 0.38792,0.199537 0.6836,0.174602 0.99747,-0.08411 0.34301,-0.282745 0.47187,-0.545327 0.7892,-1.608151 0.32907,-1.102228 0.42679,-1.327079 0.98644,-2.26991 0.46767,-0.78785 0.56402,-1.016477 0.86868,-2.061152 0.26576,-0.911291 0.49966,-1.456045 0.93665,-2.181485 0.21847,-0.362697 0.45656,-0.760509 0.52909,-0.88403 0.0725,-0.123522 0.33075,-0.81426 0.57383,-1.534976 0.54779,-1.624239 0.56994,-1.675977 1.03095,-2.410326 0.51302,-0.817185 0.78556,-1.432191 1.09444,-2.469713 0.29613,-0.994665 0.49883,-1.460777 0.93112,-2.141033 0.41749,-0.656965 0.63894,-1.110484 0.91603,-1.875935 0.4953,-1.368314 0.89035,-1.871952 1.81846,-2.318356 1.03702,-0.498788 1.56567,-0.535811 4.58157,-0.320873 0.7578,0.05401 1.59063,0.06364 2.37139,0.02741 1.74127,-0.08077 2.25106,-0.05893 2.64005,0.11314 0.66967,0.296224 0.86007,0.645182 0.86239,1.580549 0.003,1.046876 -0.18376,1.564071 -1.00215,2.781288 -0.38237,0.568709 -0.68573,1.274141 -0.97461,2.266338 -0.21179,0.727436 -0.45754,1.252047 -0.89575,1.912222 -0.51107,0.769941 -0.73567,1.242799 -1.05323,2.217376 -0.33371,1.024228 -0.58504,1.581317 -1.0196,2.260149 -0.49782,0.777631 -0.65894,1.124306 -1.05511,2.270267 -0.46746,1.352128 -0.57462,1.588757 -1.03847,2.293104 -0.4835,0.734206 -0.71701,1.248586 -1.09135,2.404235 -0.33147,1.023283 -0.42826,1.230125 -0.95658,2.044138 -0.52816,0.813768 -0.69102,1.161339 -1.02169,2.180612 -0.38627,1.190569 -0.47792,1.391129 -1.05015,2.297763 -0.5319,0.84274 -0.75951,1.347397 -1.05333,2.335453 -0.21594,0.726131 -0.52998,1.394957 -0.93621,1.993801 -0.43158,0.636229 -0.69559,1.206942 -1.03981,2.24773 -0.35899,1.085475 -0.51287,1.412244 -1.07637,2.285748 -0.4891,0.758163 -0.62591,1.06524 -1.01233,2.272104 -0.45976,1.43587 -0.90754,1.998988 -2.03348,2.557266 -0.59593,0.295482 -1.13135,0.424143 -1.89328,0.454956 -0.35306,0.01427 -2.40985,0.0033 -4.57064,-0.02453 z m 30.41124,-0.01319 c -0.91347,-0.09028 -1.71412,-0.641418 -2.08835,-1.437549 -0.24297,-0.516898 -0.31359,-1.198954 -0.22482,-2.171639 0.0543,-0.595213 0.0774,-6.030211 0.0761,-17.888453 -0.002,-18.039862 -0.014,-17.347975 0.31053,-17.975111 0.19189,-0.370893 0.67647,-0.796048 1.17434,-1.030334 l 0.45917,-0.216065 5.54504,0.01 c 3.04978,0.0055 5.64637,0.03182 5.77018,0.05854 0.54145,0.116822 1.01179,0.482159 1.26941,0.985996 0.35955,0.703143 0.34192,-0.236199 0.34,18.122581 -8.8e-4,9.421844 0.0248,17.496951 0.0572,17.944683 0.12635,1.743547 -0.15797,2.691963 -0.94539,3.153421 -0.65745,0.385293 -0.79813,0.402395 -3.54003,0.430399 -5.48967,0.05607 -7.73572,0.05978 -8.20345,0.01357 z M 7.247095,56.833497 C 6.7981219,56.768884 6.2915475,56.55262 5.9718072,56.289069 5.6811557,56.049485 5.3147734,55.52329 5.3143386,55.344805 5.3140813,55.237866 5.2414828,55.220929 4.7831299,55.220929 H 4.2522229 V 36.886921 18.552904 h 0.530907 c 0.4583174,0 0.5309514,-0.01694 0.5312087,-0.123878 5.502e-4,-0.179375 0.3673674,-0.705132 0.6610714,-0.947224 0.3265823,-0.269202 0.7544972,-0.45421 1.2852888,-0.5557 0.3029685,-0.05793 1.9263759,-0.07444 5.6630202,-0.05758 5.192944,0.02341 5.242328,0.02499 5.704435,0.180763 0.589457,0.198703 0.997814,0.493301 1.221538,0.881245 0.285646,0.49532 0.353461,1.013722 0.303661,2.321282 -0.02449,0.642398 -0.0481,6.415874 -0.05245,12.829945 l -0.008,11.661947 0.167001,0.478149 c 0.196595,0.562897 0.610942,1.026207 1.158346,1.295227 l 0.353941,0.173942 9.122345,0.01264 c 6.885097,0.0096 9.211421,0.0338 9.485551,0.09886 0.563785,0.133803 1.088863,0.411899 1.309583,0.693598 0.519838,0.663443 0.573021,0.982628 0.662006,3.973057 0.04113,1.382126 0.0715,2.704086 0.06749,2.937685 -0.02103,1.225037 -0.556766,1.976294 -1.645082,2.306858 -0.46917,0.142507 -0.61339,0.143853 -16.823122,0.157226 -8.992441,0.0075 -16.5091756,-0.0094 -16.7038631,-0.03746 z M 158.74656,25.453862 c -0.32897,-0.178501 -0.44549,-0.309618 -0.57391,-0.645875 -0.25421,-0.665661 0.0601,-1.706979 0.72918,-2.416072 0.17365,-0.184019 0.51392,-0.986929 0.59847,-1.412164 0.15472,-0.778123 -0.16893,-1.436861 -0.8052,-1.638825 -0.12751,-0.04048 -0.6034,-0.120801 -1.0575,-0.178497 -0.93532,-0.118835 -1.28101,-0.26026 -1.60913,-0.65832 -0.45947,-0.557414 -0.46752,-0.629731 -0.46752,-4.198467 v -3.220841 l 0.19467,-0.465674 c 0.14637,-0.350158 0.19466,-0.582822 0.19466,-0.9379365 V 9.2089267 h 4.21187 4.21186 v 0.502282 c 0,0.3779943 0.033,0.5487783 0.13322,0.6901813 0.0733,0.103345 0.1927,0.347171 0.26545,0.541835 0.12052,0.322524 0.1343,0.636664 0.15538,3.539386 0.0259,3.5607 0.0112,3.732765 -0.42182,4.944194 -0.31897,0.892345 -0.653,1.518106 -1.11281,2.084645 -0.18029,0.222128 -0.37584,0.464163 -0.43456,0.537851 -0.0588,0.07369 -0.18875,0.232964 -0.28893,0.35394 -0.10013,0.120976 -0.3374,0.442938 -0.52716,0.715468 -0.67377,0.967687 -1.56724,1.904806 -2.08447,2.186318 -0.45334,0.246737 -1.01407,0.310359 -1.31175,0.148835 z"
       style="fill:#c9c9c9;stroke-width:0.0707877" />
  </g>
</svg>
